<?xml version="1.0" encoding="UTF-8"?>
<svg width="23px" height="19px" viewBox="0 0 23 19" version="1.1" xmlns="http://www.w3.org/2000/svg" xmlns:xlink="http://www.w3.org/1999/xlink">
    <title></title>
    <g id="Starfish" stroke="none" stroke-width="1" fill="none" fill-rule="evenodd">
        <g id="Starfish---Tools---First-view" transform="translate(-216.000000, -800.000000)" fill="#ADADAD" fill-rule="nonzero">
            <g id="component-/-main-navigation" transform="translate(0.000000, 786.000000)">
                <g id="Group-2" transform="translate(202.000000, 14.142857)">
                    <path d="M29.5,18.8571429 C30.5625,18.8571429 31.4709821,18.4799107 32.2254464,17.7254464 C32.9799107,16.9709821 33.3571429,16.0625 33.3571429,15 L33.3571429,15 L33.3571429,10.7410714 C33.3571429,10.5535714 33.2678571,10.4241071 33.0892857,10.3526786 C33.0357143,10.3258929 32.9821429,10.3125 32.9285714,10.3125 C32.8125,10.3125 32.7098214,10.3571429 32.6205357,10.4464286 L32.6205357,10.4464286 L31.7633929,11.3035714 C31.6830357,11.3839286 31.6428571,11.4821429 31.6428571,11.5982143 L31.6428571,11.5982143 L31.6428571,15 C31.6428571,15.5892857 31.4330357,16.09375 31.0133929,16.5133929 C30.59375,16.9330357 30.0892857,17.1428571 29.5,17.1428571 L29.5,17.1428571 L18.3571429,17.1428571 C17.7678571,17.1428571 17.2633929,16.9330357 16.84375,16.5133929 C16.4241071,16.09375 16.2142857,15.5892857 16.2142857,15 L16.2142857,15 L16.2142857,3.85714286 C16.2142857,3.26785714 16.4241071,2.76339286 16.84375,2.34375 C17.2633929,1.92410714 17.7678571,1.71428571 18.3571429,1.71428571 L18.3571429,1.71428571 L29.5,1.71428571 C29.6964286,1.71428571 29.8973214,1.74107143 30.1026786,1.79464286 C30.15625,1.8125 30.1964286,1.82142857 30.2232143,1.82142857 C30.3392857,1.82142857 30.4419643,1.77678571 30.53125,1.6875 L30.53125,1.6875 L31.1875,1.03125 C31.2946429,0.924107143 31.3348214,0.794642857 31.3080357,0.642857143 C31.28125,0.5 31.2008929,0.397321429 31.0669643,0.334821429 C30.5848214,0.111607143 30.0625,5.68434189e-14 29.5,5.68434189e-14 L29.5,5.68434189e-14 L18.3571429,5.68434189e-14 C17.2946429,5.68434189e-14 16.3861607,0.377232143 15.6316964,1.13169643 C14.8772321,1.88616071 14.5,2.79464286 14.5,3.85714286 L14.5,3.85714286 L14.5,15 C14.5,16.0625 14.8772321,16.9709821 15.6316964,17.7254464 C16.3861607,18.4799107 17.2946429,18.8571429 18.3571429,18.8571429 L18.3571429,18.8571429 L29.5,18.8571429 Z M24.7857143,15.4151786 C25.0803571,15.4151786 25.3348214,15.3080357 25.5491071,15.09375 L25.5491071,15.09375 L36.4508929,4.19196429 C36.6651786,3.97767857 36.7723214,3.72321429 36.7723214,3.42857143 C36.7723214,3.13392857 36.6651786,2.87946429 36.4508929,2.66517857 L36.4508929,2.66517857 L34.9776786,1.19196429 C34.7633929,0.977678571 34.5089286,0.870535714 34.2142857,0.870535714 C33.9196429,0.870535714 33.6651786,0.977678571 33.4508929,1.19196429 L33.4508929,1.19196429 L24.7857143,9.85714286 L21.2633929,6.33482143 C21.0491071,6.12053571 20.7946429,6.01339286 20.5,6.01339286 C20.2053571,6.01339286 19.9508929,6.12053571 19.7366071,6.33482143 L19.7366071,6.33482143 L18.2633929,7.80803571 C18.0491071,8.02232143 17.9419643,8.27678571 17.9419643,8.57142857 C17.9419643,8.86607143 18.0491071,9.12053571 18.2633929,9.33482143 L18.2633929,9.33482143 L24.0223214,15.09375 C24.2366071,15.3080357 24.4910714,15.4151786 24.7857143,15.4151786 Z" id=""></path>
                </g>
            </g>
        </g>
    </g>
</svg>