<?xml version="1.0" encoding="UTF-8"?>
<svg width="23px" height="19px" viewBox="0 0 23 19" version="1.1" xmlns="http://www.w3.org/2000/svg" xmlns:xlink="http://www.w3.org/1999/xlink">
    <title></title>
    <g id="Starfish" stroke="none" stroke-width="1" fill="none" fill-rule="evenodd">
        <g id="Starfish---Actions--First-view" transform="translate(-216.000000, -751.000000)" fill="#800080" fill-rule="nonzero">
            <g id="component-/-main-navigation" transform="translate(0.000000, 737.000000)">
                <g id="Group-2" transform="translate(202.000000, 12.000000)">
                    <path d="M29.5,21 C30.5625,21 31.4709821,20.6227679 32.2254464,19.8683036 C32.9799107,19.1138393 33.3571429,18.2053571 33.3571429,17.1428571 L33.3571429,17.1428571 L33.3571429,12.8839286 C33.3571429,12.6964286 33.2678571,12.5669643 33.0892857,12.4955357 C33.0357143,12.46875 32.9821429,12.4553571 32.9285714,12.4553571 C32.8125,12.4553571 32.7098214,12.5 32.6205357,12.5892857 L32.6205357,12.5892857 L31.7633929,13.4464286 C31.6830357,13.5267857 31.6428571,13.625 31.6428571,13.7410714 L31.6428571,13.7410714 L31.6428571,17.1428571 C31.6428571,17.7321429 31.4330357,18.2366071 31.0133929,18.65625 C30.59375,19.0758929 30.0892857,19.2857143 29.5,19.2857143 L29.5,19.2857143 L18.3571429,19.2857143 C17.7678571,19.2857143 17.2633929,19.0758929 16.84375,18.65625 C16.4241071,18.2366071 16.2142857,17.7321429 16.2142857,17.1428571 L16.2142857,17.1428571 L16.2142857,6 C16.2142857,5.41071429 16.4241071,4.90625 16.84375,4.48660714 C17.2633929,4.06696429 17.7678571,3.85714286 18.3571429,3.85714286 L18.3571429,3.85714286 L29.5,3.85714286 C29.6964286,3.85714286 29.8973214,3.88392857 30.1026786,3.9375 C30.15625,3.95535714 30.1964286,3.96428571 30.2232143,3.96428571 C30.3392857,3.96428571 30.4419643,3.91964286 30.53125,3.83035714 L30.53125,3.83035714 L31.1875,3.17410714 C31.2946429,3.06696429 31.3348214,2.9375 31.3080357,2.78571429 C31.28125,2.64285714 31.2008929,2.54017857 31.0669643,2.47767857 C30.5848214,2.25446429 30.0625,2.14285714 29.5,2.14285714 L29.5,2.14285714 L18.3571429,2.14285714 C17.2946429,2.14285714 16.3861607,2.52008929 15.6316964,3.27455357 C14.8772321,4.02901786 14.5,4.9375 14.5,6 L14.5,6 L14.5,17.1428571 C14.5,18.2053571 14.8772321,19.1138393 15.6316964,19.8683036 C16.3861607,20.6227679 17.2946429,21 18.3571429,21 L18.3571429,21 L29.5,21 Z M24.7857143,17.5580357 C25.0803571,17.5580357 25.3348214,17.4508929 25.5491071,17.2366071 L25.5491071,17.2366071 L36.4508929,6.33482143 C36.6651786,6.12053571 36.7723214,5.86607143 36.7723214,5.57142857 C36.7723214,5.27678571 36.6651786,5.02232143 36.4508929,4.80803571 L36.4508929,4.80803571 L34.9776786,3.33482143 C34.7633929,3.12053571 34.5089286,3.01339286 34.2142857,3.01339286 C33.9196429,3.01339286 33.6651786,3.12053571 33.4508929,3.33482143 L33.4508929,3.33482143 L24.7857143,12 L21.2633929,8.47767857 C21.0491071,8.26339286 20.7946429,8.15625 20.5,8.15625 C20.2053571,8.15625 19.9508929,8.26339286 19.7366071,8.47767857 L19.7366071,8.47767857 L18.2633929,9.95089286 C18.0491071,10.1651786 17.9419643,10.4196429 17.9419643,10.7142857 C17.9419643,11.0089286 18.0491071,11.2633929 18.2633929,11.4776786 L18.2633929,11.4776786 L24.0223214,17.2366071 C24.2366071,17.4508929 24.4910714,17.5580357 24.7857143,17.5580357 Z" id=""></path>
                </g>
            </g>
        </g>
    </g>
</svg>