<?xml version="1.0" encoding="UTF-8"?>
<svg width="27px" height="25px" viewBox="0 0 27 25" version="1.1" xmlns="http://www.w3.org/2000/svg" xmlns:xlink="http://www.w3.org/1999/xlink">
    <title></title>
    <g id="Starfish" stroke="none" stroke-width="1" fill="none" fill-rule="evenodd">
        <g id="Starfish---Tools---First-view" transform="translate(-118.000000, -798.000000)" fill="#ADADAD" fill-rule="nonzero">
            <g id="component-/-main-navigation" transform="translate(0.000000, 786.000000)">
                <g id="Group-3" transform="translate(106.500000, 12.428571)">
                    <path d="M17.1428571,6.85714286 C18.0892857,6.85714286 18.8973214,6.52232143 19.5669643,5.85267857 C20.2366071,5.18303571 20.5714286,4.375 20.5714286,3.42857143 C20.5714286,2.48214286 20.2366071,1.67410714 19.5669643,1.00446429 C18.8973214,0.334821429 18.0892857,0 17.1428571,0 C16.1964286,0 15.3883929,0.334821429 14.71875,1.00446429 C14.0491071,1.67410714 13.7142857,2.48214286 13.7142857,3.42857143 C13.7142857,4.375 14.0491071,5.18303571 14.71875,5.85267857 C15.3883929,6.52232143 16.1964286,6.85714286 17.1428571,6.85714286 Z M32.5714286,6.85714286 C33.5178571,6.85714286 34.3258929,6.52232143 34.9955357,5.85267857 C35.6651786,5.18303571 36,4.375 36,3.42857143 C36,2.48214286 35.6651786,1.67410714 34.9955357,1.00446429 C34.3258929,0.334821429 33.5178571,0 32.5714286,0 C31.625,0 30.8169643,0.334821429 30.1473214,1.00446429 C29.4776786,1.67410714 29.1428571,2.48214286 29.1428571,3.42857143 C29.1428571,4.375 29.4776786,5.18303571 30.1473214,5.85267857 C30.8169643,6.52232143 31.625,6.85714286 32.5714286,6.85714286 Z M24.8571429,13.7142857 C26.2767857,13.7142857 27.4888393,13.2120536 28.4933036,12.2075893 C29.4977679,11.203125 30,9.99107143 30,8.57142857 C30,7.15178571 29.4955357,5.94196429 28.4866071,4.94196429 C27.4866071,3.93303571 26.2767857,3.42857143 24.8571429,3.42857143 C23.4375,3.42857143 22.2254464,3.93080357 21.2209821,4.93526786 C20.2165179,5.93973214 19.7142857,7.15178571 19.7142857,8.57142857 C19.7142857,9.99107143 20.2165179,11.203125 21.2209821,12.2075893 C22.2254464,13.2120536 23.4375,13.7142857 24.8571429,13.7142857 Z M16.3928571,13.7142857 C17.3125,12.6160714 18.4955357,12.0446429 19.9419643,12 C19.21875,10.9553571 18.8571429,9.8125 18.8571429,8.57142857 C18.8571429,8.3125 18.8794643,8.01785714 18.9241071,7.6875 C18.3348214,7.89285714 17.7410714,7.99553571 17.1428571,7.99553571 C16.6160714,7.99553571 16.0848214,7.89955357 15.5491071,7.70758929 C15.0133929,7.515625 14.578125,7.32589286 14.2433036,7.13839286 C13.9084821,6.95089286 13.7142857,6.85714286 13.6607143,6.85714286 C12.5535714,6.85714286 12,8.43303571 12,11.5848214 C12,12.28125 12.25,12.8102679 12.75,13.171875 C13.25,13.5334821 13.8660714,13.7142857 14.5982143,13.7142857 L14.5982143,13.7142857 L16.3928571,13.7142857 Z M35.1160714,13.7142857 C35.8482143,13.7142857 36.4642857,13.5334821 36.9642857,13.171875 C37.4642857,12.8102679 37.7142857,12.28125 37.7142857,11.5848214 C37.7142857,8.43303571 37.1607143,6.85714286 36.0535714,6.85714286 C36,6.85714286 35.8058036,6.95089286 35.4709821,7.13839286 C35.1361607,7.32589286 34.7008929,7.515625 34.1651786,7.70758929 C33.6294643,7.89955357 33.0982143,7.99553571 32.5714286,7.99553571 C31.9732143,7.99553571 31.3794643,7.89285714 30.7901786,7.6875 C30.8348214,8.01785714 30.8571429,8.3125 30.8571429,8.57142857 C30.8571429,9.8125 30.4955357,10.9553571 29.7723214,12 C31.21875,12.0446429 32.4017857,12.6160714 33.3214286,13.7142857 L33.3214286,13.7142857 L35.1160714,13.7142857 Z M30.7098214,24 C31.7901786,24 32.65625,23.6897321 33.3080357,23.0691964 C33.9598214,22.4486607 34.2857143,21.6026786 34.2857143,20.53125 C34.2857143,20.0580357 34.2700893,19.5959821 34.2388393,19.1450893 C34.2075893,18.6941964 34.1450893,18.2075893 34.0513393,17.6852679 C33.9575893,17.1629464 33.8392857,16.6785714 33.6964286,16.2321429 C33.5535714,15.7857143 33.3616071,15.3504464 33.1205357,14.9263393 C32.8794643,14.5022321 32.6026786,14.140625 32.2901786,13.8415179 C31.9776786,13.5424107 31.5959821,13.3035714 31.1450893,13.125 C30.6941964,12.9464286 30.1964286,12.8571429 29.6517857,12.8571429 C29.5625,12.8571429 29.3705357,12.953125 29.0758929,13.1450893 C28.78125,13.3370536 28.4553571,13.5513393 28.0982143,13.7879464 C27.7410714,14.0245536 27.2633929,14.2388393 26.6651786,14.4308036 C26.0669643,14.6227679 25.4642857,14.71875 24.8571429,14.71875 C24.25,14.71875 23.6473214,14.6227679 23.0491071,14.4308036 C22.4508929,14.2388393 21.9732143,14.0245536 21.6160714,13.7879464 C21.2589286,13.5513393 20.9330357,13.3370536 20.6383929,13.1450893 C20.34375,12.953125 20.1517857,12.8571429 20.0625,12.8571429 C19.5178571,12.8571429 19.0200893,12.9464286 18.5691964,13.125 C18.1183036,13.3035714 17.7366071,13.5424107 17.4241071,13.8415179 C17.1116071,14.140625 16.8348214,14.5022321 16.59375,14.9263393 C16.3526786,15.3504464 16.1607143,15.7857143 16.0178571,16.2321429 C15.875,16.6785714 15.7566964,17.1629464 15.6629464,17.6852679 C15.5691964,18.2075893 15.5066964,18.6941964 15.4754464,19.1450893 C15.4441964,19.5959821 15.4285714,20.0580357 15.4285714,20.53125 C15.4285714,21.6026786 15.7544643,22.4486607 16.40625,23.0691964 C17.0580357,23.6897321 17.9241071,24 19.0044643,24 L19.0044643,24 L30.7098214,24 Z" id=""></path>
                </g>
            </g>
        </g>
    </g>
</svg>