<?xml version="1.0" encoding="UTF-8"?>
<svg width="27px" height="25px" viewBox="0 0 27 25" version="1.1" xmlns="http://www.w3.org/2000/svg" xmlns:xlink="http://www.w3.org/1999/xlink">
    <title></title>
    <g id="Starfish" stroke="none" stroke-width="1" fill="none" fill-rule="evenodd">
        <g id="Starfish---People---No-Group" transform="translate(-118.000000, -749.000000)" fill="#D78A00" fill-rule="nonzero">
            <g id="component-/-main-navigation" transform="translate(0.000000, 737.000000)">
                <g id="Group-3" transform="translate(106.500000, 12.000000)">
                    <path d="M17.1428571,7.28571429 C18.0892857,7.28571429 18.8973214,6.95089286 19.5669643,6.28125 C20.2366071,5.61160714 20.5714286,4.80357143 20.5714286,3.85714286 C20.5714286,2.91071429 20.2366071,2.10267857 19.5669643,1.43303571 C18.8973214,0.763392857 18.0892857,0.428571429 17.1428571,0.428571429 C16.1964286,0.428571429 15.3883929,0.763392857 14.71875,1.43303571 C14.0491071,2.10267857 13.7142857,2.91071429 13.7142857,3.85714286 C13.7142857,4.80357143 14.0491071,5.61160714 14.71875,6.28125 C15.3883929,6.95089286 16.1964286,7.28571429 17.1428571,7.28571429 Z M32.5714286,7.28571429 C33.5178571,7.28571429 34.3258929,6.95089286 34.9955357,6.28125 C35.6651786,5.61160714 36,4.80357143 36,3.85714286 C36,2.91071429 35.6651786,2.10267857 34.9955357,1.43303571 C34.3258929,0.763392857 33.5178571,0.428571429 32.5714286,0.428571429 C31.625,0.428571429 30.8169643,0.763392857 30.1473214,1.43303571 C29.4776786,2.10267857 29.1428571,2.91071429 29.1428571,3.85714286 C29.1428571,4.80357143 29.4776786,5.61160714 30.1473214,6.28125 C30.8169643,6.95089286 31.625,7.28571429 32.5714286,7.28571429 Z M24.8571429,14.1428571 C26.2767857,14.1428571 27.4888393,13.640625 28.4933036,12.6361607 C29.4977679,11.6316964 30,10.4196429 30,9 C30,7.58035714 29.4955357,6.37053571 28.4866071,5.37053571 C27.4866071,4.36160714 26.2767857,3.85714286 24.8571429,3.85714286 C23.4375,3.85714286 22.2254464,4.359375 21.2209821,5.36383929 C20.2165179,6.36830357 19.7142857,7.58035714 19.7142857,9 C19.7142857,10.4196429 20.2165179,11.6316964 21.2209821,12.6361607 C22.2254464,13.640625 23.4375,14.1428571 24.8571429,14.1428571 Z M16.3928571,14.1428571 C17.3125,13.0446429 18.4955357,12.4732143 19.9419643,12.4285714 C19.21875,11.3839286 18.8571429,10.2410714 18.8571429,9 C18.8571429,8.74107143 18.8794643,8.44642857 18.9241071,8.11607143 C18.3348214,8.32142857 17.7410714,8.42410714 17.1428571,8.42410714 C16.6160714,8.42410714 16.0848214,8.328125 15.5491071,8.13616071 C15.0133929,7.94419643 14.578125,7.75446429 14.2433036,7.56696429 C13.9084821,7.37946429 13.7142857,7.28571429 13.6607143,7.28571429 C12.5535714,7.28571429 12,8.86160714 12,12.0133929 C12,12.7098214 12.25,13.2388393 12.75,13.6004464 C13.25,13.9620536 13.8660714,14.1428571 14.5982143,14.1428571 L14.5982143,14.1428571 L16.3928571,14.1428571 Z M35.1160714,14.1428571 C35.8482143,14.1428571 36.4642857,13.9620536 36.9642857,13.6004464 C37.4642857,13.2388393 37.7142857,12.7098214 37.7142857,12.0133929 C37.7142857,8.86160714 37.1607143,7.28571429 36.0535714,7.28571429 C36,7.28571429 35.8058036,7.37946429 35.4709821,7.56696429 C35.1361607,7.75446429 34.7008929,7.94419643 34.1651786,8.13616071 C33.6294643,8.328125 33.0982143,8.42410714 32.5714286,8.42410714 C31.9732143,8.42410714 31.3794643,8.32142857 30.7901786,8.11607143 C30.8348214,8.44642857 30.8571429,8.74107143 30.8571429,9 C30.8571429,10.2410714 30.4955357,11.3839286 29.7723214,12.4285714 C31.21875,12.4732143 32.4017857,13.0446429 33.3214286,14.1428571 L33.3214286,14.1428571 L35.1160714,14.1428571 Z M30.7098214,24.4285714 C31.7901786,24.4285714 32.65625,24.1183036 33.3080357,23.4977679 C33.9598214,22.8772321 34.2857143,22.03125 34.2857143,20.9598214 C34.2857143,20.4866071 34.2700893,20.0245536 34.2388393,19.5736607 C34.2075893,19.1227679 34.1450893,18.6361607 34.0513393,18.1138393 C33.9575893,17.5915179 33.8392857,17.1071429 33.6964286,16.6607143 C33.5535714,16.2142857 33.3616071,15.7790179 33.1205357,15.3549107 C32.8794643,14.9308036 32.6026786,14.5691964 32.2901786,14.2700893 C31.9776786,13.9709821 31.5959821,13.7321429 31.1450893,13.5535714 C30.6941964,13.375 30.1964286,13.2857143 29.6517857,13.2857143 C29.5625,13.2857143 29.3705357,13.3816964 29.0758929,13.5736607 C28.78125,13.765625 28.4553571,13.9799107 28.0982143,14.2165179 C27.7410714,14.453125 27.2633929,14.6674107 26.6651786,14.859375 C26.0669643,15.0513393 25.4642857,15.1473214 24.8571429,15.1473214 C24.25,15.1473214 23.6473214,15.0513393 23.0491071,14.859375 C22.4508929,14.6674107 21.9732143,14.453125 21.6160714,14.2165179 C21.2589286,13.9799107 20.9330357,13.765625 20.6383929,13.5736607 C20.34375,13.3816964 20.1517857,13.2857143 20.0625,13.2857143 C19.5178571,13.2857143 19.0200893,13.375 18.5691964,13.5535714 C18.1183036,13.7321429 17.7366071,13.9709821 17.4241071,14.2700893 C17.1116071,14.5691964 16.8348214,14.9308036 16.59375,15.3549107 C16.3526786,15.7790179 16.1607143,16.2142857 16.0178571,16.6607143 C15.875,17.1071429 15.7566964,17.5915179 15.6629464,18.1138393 C15.5691964,18.6361607 15.5066964,19.1227679 15.4754464,19.5736607 C15.4441964,20.0245536 15.4285714,20.4866071 15.4285714,20.9598214 C15.4285714,22.03125 15.7544643,22.8772321 16.40625,23.4977679 C17.0580357,24.1183036 17.9241071,24.4285714 19.0044643,24.4285714 L19.0044643,24.4285714 L30.7098214,24.4285714 Z" id=""></path>
                </g>
            </g>
        </g>
    </g>
</svg>