<?xml version="1.0" encoding="UTF-8"?>
<svg width="21px" height="21px" viewBox="0 0 21 21" version="1.1" xmlns="http://www.w3.org/2000/svg" xmlns:xlink="http://www.w3.org/1999/xlink">
    <title></title>
    <g id="Starfish" stroke="none" stroke-width="1" fill="none" fill-rule="evenodd">
        <g id="Starfish---People---Create-Group---Member-added" transform="translate(-324.000000, -1323.000000)" fill="#3A78EE" fill-rule="nonzero">
            <g id="Group-6-Copy-4" transform="translate(15.000000, 1243.000000)">
                <g id="element-/-input" transform="translate(0.000000, 64.000000)">
                    <path d="M319.285714,36.7142857 C321.151786,36.7142857 322.872768,36.2544643 324.448661,35.3348214 C326.024554,34.4151786 327.272321,33.1674107 328.191964,31.5915179 C329.111607,30.015625 329.571429,28.2946429 329.571429,26.4285714 C329.571429,24.5625 329.111607,22.84375 328.191964,21.2723214 C327.272321,19.6919643 326.024554,18.4419643 324.448661,17.5223214 C322.872768,16.6026786 321.151786,16.1428571 319.285714,16.1428571 C317.419643,16.1428571 315.698661,16.6026786 314.122768,17.5223214 C312.546875,18.4419643 311.299107,19.6897321 310.379464,21.265625 C309.459821,22.8415179 309,24.5625 309,26.4285714 C309,28.2946429 309.459821,30.015625 310.379464,31.5915179 C311.299107,33.1674107 312.546875,34.4151786 314.122768,35.3348214 C315.698661,36.2544643 317.419643,36.7142857 319.285714,36.7142857 Z M319.299107,33.3392857 C319.058036,33.3392857 318.857143,33.2589286 318.696429,33.0982143 L318.696429,33.0982143 L317.477679,31.8794643 C317.308036,31.7098214 317.223214,31.5089286 317.223214,31.2767857 C317.223214,31.0446429 317.308036,30.84375 317.477679,30.6741071 L317.477679,30.6741071 L320.008929,28.1428571 L313.285714,28.1428571 C313.053571,28.1428571 312.852679,28.0580357 312.683036,27.8883929 C312.513393,27.71875 312.428571,27.5178571 312.428571,27.2857143 L312.428571,27.2857143 L312.428571,25.5714286 C312.428571,25.3392857 312.513393,25.1383929 312.683036,24.96875 C312.852679,24.7991071 313.053571,24.7142857 313.285714,24.7142857 L313.285714,24.7142857 L320.008929,24.7142857 L317.477679,22.1830357 C317.316964,22.0223214 317.236607,21.8214286 317.236607,21.5803571 C317.236607,21.3392857 317.316964,21.1383929 317.477679,20.9776786 L317.477679,20.9776786 L318.696429,19.7589286 C318.857143,19.5982143 319.058036,19.5178571 319.299107,19.5178571 C319.540179,19.5178571 319.741071,19.5982143 319.901786,19.7589286 L319.901786,19.7589286 L325.96875,25.8258929 C326.129464,25.9866071 326.209821,26.1875 326.209821,26.4285714 C326.209821,26.6696429 326.129464,26.8705357 325.96875,27.03125 L325.96875,27.03125 L319.901786,33.0982143 C319.741071,33.2589286 319.540179,33.3392857 319.299107,33.3392857 Z" id=""></path>
                </g>
            </g>
        </g>
    </g>
</svg>