<?xml version="1.0" encoding="UTF-8"?>
<svg width="163px" height="156px" viewBox="0 0 163 156" version="1.1" xmlns="http://www.w3.org/2000/svg" xmlns:xlink="http://www.w3.org/1999/xlink">
    <title>Group 66</title>
    <defs>
        <polygon id="path-1" points="-2.1372599e-15 0 163 0 163 156 -2.1372599e-15 156"></polygon>
    </defs>
    <g id="Starfish" stroke="none" stroke-width="1" fill="none" fill-rule="evenodd">
        <g id="Starfish---Register" transform="translate(-107.000000, -118.000000)">
            <g id="Group-66" transform="translate(107.000000, 118.000000)">
                <path d="M154.96878,54.7059599 L116.027792,56.6737336 C107.735871,57.093568 100.276022,51.6645638 98.112634,43.6396366 L87.9485498,5.94427173 C86.169195,-0.648090578 76.8307827,-0.648090578 75.0514279,5.94427173 L64.8873437,43.6396366 C62.7207552,51.6645638 55.2641066,57.093568 46.9721852,56.6737336 L8.03119769,54.7059599 C1.22100526,54.3630417 -1.66564585,63.2564814 4.04365081,66.9901236 L36.7056921,88.3183546 C43.6566968,92.8596173 46.5049446,101.644092 43.5478873,109.409427 L29.645878,145.890157 C27.2136664,152.270999 34.7695237,157.767305 40.0787856,153.479225 L70.4270256,128.96538 C76.891588,123.747895 86.1083897,123.747895 92.5697518,128.96538 L122.921192,153.479225 C128.230454,157.767305 135.786311,152.270999 133.3541,145.890157 L119.45209,109.409427 C116.495033,101.644092 119.343281,92.8596173 126.294286,88.3183546 L158.953127,66.9901236 C164.665624,63.2564814 161.782173,54.3630417 154.96878,54.7059599" id="Fill-1" fill="#424242"></path>
                <g id="Group-5">
                    <mask id="mask-2" fill="white">
                        <use xlink:href="#path-1"></use>
                    </mask>
                    <g id="Clip-4"></g>
                    <path d="M81.4984193,124.419512 C85.6180746,124.419512 89.731313,125.775643 93.0905647,128.491117 L123.516337,153.068573 C126.12481,155.173467 129.018836,154.479334 130.703274,153.251747 C132.39413,152.020946 133.943813,149.475791 132.753477,146.348978 L118.812743,109.772017 C115.735835,101.696292 118.751782,92.4090475 125.98043,87.6850857 L158.722706,66.2987146 C161.520478,64.4701879 161.761112,61.4976269 161.116213,59.5084212 C160.493772,57.5899143 158.668162,55.414321 155.546336,55.414321 C155.427623,55.414321 155.312119,55.4175346 155.196614,55.4239618 L116.152934,57.4003131 C107.515775,57.8020105 99.6486452,52.0914799 97.3963103,43.7490277 L87.2062595,5.94769281 C86.3335599,2.71804548 83.5871231,1.57079763 81.5016278,1.57079763 L81.4984193,1.57079763 C79.412924,1.57079763 76.6632787,2.71804548 75.796996,5.94769281 L65.6037368,43.7490277 C63.3514018,52.0914799 55.4810635,57.8084377 46.8439045,57.4003131 L7.80343271,55.4239618 C4.55326852,55.2247198 2.52873386,57.5192156 1.88383455,59.5084212 C1.23572678,61.4976269 1.47956931,64.4701879 4.27734145,66.2987146 L37.0196175,87.6850857 C44.248265,92.4090475 47.2610036,101.696292 44.1840959,109.772017 L30.2465705,146.348978 C29.0562339,149.479005 30.6059174,152.02416 32.2967728,153.251747 C33.9844197,154.482548 36.8784455,155.170254 39.4805019,153.068573 L69.9094824,128.491117 C73.2655256,125.775643 77.3851809,124.419512 81.4984193,124.419512 M127.218893,156.000482 C125.576164,156.000482 123.936644,155.42734 122.53455,154.292947 L92.1055692,129.712278 C85.9613792,124.750511 77.0418763,124.747297 70.8912694,129.712278 L40.4654974,154.292947 C37.7607704,156.481394 34.1897608,156.574588 31.3727379,154.524324 C28.5557151,152.474061 27.5418435,149.045171 28.7803069,145.786602 L42.7178323,109.209641 C45.5316467,101.821622 42.7755845,93.321704 36.1597517,89.0026533 L3.4174757,67.6162821 C0.504199203,65.7106295 -0.686137339,62.3395847 0.391903303,59.0231707 C1.46673549,55.7067568 4.34151053,53.7143375 7.88685253,53.8525214 L46.9273243,55.8256592 C54.7912458,56.2080751 62.0263102,50.9731543 64.0861379,43.3376895 L74.2793972,5.53635465 C75.1841813,2.17495056 78.0204549,-0.000642715886 81.4984193,-0.000642715886 L81.5016278,-0.000642715886 C84.9795922,-0.000642715886 87.8126574,2.17173698 88.7206499,5.53635465 L98.9107007,43.3376895 C100.973737,50.9731543 108.215218,56.2530653 116.072723,55.8256592 L155.116403,53.8525214 L155.158113,54.6398484 L155.116403,53.8525214 C158.636077,53.7046968 161.533312,55.7067568 162.608144,59.0231707 C163.686184,62.3395847 162.495848,65.7106295 159.579363,67.6162821 L126.837087,89.0026533 C120.224463,93.321704 117.465192,101.821622 120.279006,109.209641 L134.21974,145.786602 C135.461412,149.045171 134.441124,152.474061 131.630518,154.521111 C130.273341,155.510893 128.742909,156.000482 127.218893,156.000482" id="Fill-3" fill="#424242" mask="url(#mask-2)"></path>
                </g>
                <path d="M90,63 C90,67.420284 86.4177652,71 81.9983776,71 C77.5789901,71 74,67.420284 74,63 C74,58.579716 77.5789901,55 81.9983776,55 C86.4177652,55 90,58.579716 90,63" id="Fill-6" fill="#65B5F6"></path>
                <path d="M82.0016664,55.5663766 C77.9024255,55.5663766 74.5697093,58.8990928 74.5697093,62.9983336 C74.5697093,67.0975745 77.9024255,70.4336234 82.0016664,70.4336234 C86.0975745,70.4336234 89.4302907,67.0975745 89.4302907,62.9983336 C89.4302907,58.8990928 86.0975745,55.5663766 82.0016664,55.5663766 M82.0016664,72 C77.039252,72 73,67.9640807 73,62.9983336 C73,58.039252 77.039252,54 82.0016664,54 C86.960748,54 91,58.039252 91,62.9983336 C91,67.9640807 86.960748,72 82.0016664,72" id="Fill-8" fill="#F9FDFA"></path>
                <path d="M87,42.498452 C87,45.5356037 84.5386997,48 81.501548,48 C78.4643963,48 76,45.5356037 76,42.498452 C76,39.4613003 78.4643963,37 81.501548,37 C84.5386997,37 87,39.4613003 87,42.498452" id="Fill-10" fill="#65B5F6"></path>
                <path d="M81.5016344,37.3830483 C78.6806638,37.3830483 76.3859693,39.6783199 76.3859693,42.5 C76.3859693,45.3216801 78.6806638,47.6169517 81.5016344,47.6169517 C84.322605,47.6169517 86.6140307,45.3216801 86.6140307,42.5 C86.6140307,39.6783199 84.322605,37.3830483 81.5016344,37.3830483 M81.5016344,49 C77.9157657,49 75,46.0867706 75,42.5 C75,38.916499 77.9157657,36 81.5016344,36 C85.0809656,36 88,38.916499 88,42.5 C88,46.0867706 85.0809656,49 81.5016344,49" id="Fill-12" fill="#F9FDFA"></path>
                <path d="M86,27 C86,29.206661 84.2100769,31 82,31 C79.7899231,31 78,29.206661 78,27 C78,24.7899231 79.7899231,23 82,23 C84.2100769,23 86,24.7899231 86,27" id="Fill-14" fill="#65B5F6"></path>
                <path d="M82.5015997,23.5042674 C80.8474938,23.5042674 79.5037327,24.8485064 79.5037327,26.5 C79.5037327,28.1514936 80.8474938,29.4957326 82.5015997,29.4957326 C84.1557057,29.4957326 85.4962673,28.1514936 85.4962673,26.5 C85.4962673,24.8485064 84.1557057,23.5042674 82.5015997,23.5042674 M82.5015997,31 C80.0220405,31 78,28.980441 78,26.5 C78,24.019559 80.0220405,22 82.5015997,22 C84.9811589,22 87,24.019559 87,26.5 C87,28.980441 84.9811589,31 82.5015997,31" id="Fill-16" fill="#F9FDFA"></path>
                <path d="M101.469924,98.2984845 C98.8743098,94.7228667 93.8712629,93.9311692 90.2990484,96.5301436 C86.7235894,99.1258733 85.931927,104.125898 88.5275415,107.701516 C91.1264005,111.277133 96.1294475,112.068831 99.701662,109.469856 C103.277121,106.874127 104.068783,101.874102 101.469924,98.2984845" id="Fill-18" fill="#65B5F6"></path>
                <path d="M93.9921657,95.5677138 C92.4756242,95.5677138 90.9490835,96.0275912 89.6291924,96.9840029 C88.0259914,98.1503586 86.969412,99.8732327 86.6594375,101.836043 C86.3494631,103.798853 86.8227574,105.761663 87.9893278,107.367901 C89.1558982,108.97414 90.8757562,110.030525 92.8389275,110.340442 C94.7920997,110.643695 96.7619371,110.177153 98.3718042,109.014129 C101.688197,106.604772 102.424803,101.946013 100.018335,98.6302307 C98.5651216,96.6307637 96.2919759,95.5677138 93.9921657,95.5677138 M94.0221632,112 C93.5455359,112 93.0722416,111.963343 92.5956143,111.886697 C90.2191438,111.510131 88.1326493,110.233804 86.7194326,108.287656 C85.309549,106.344841 84.7362629,103.965475 85.1128985,101.592774 C85.486201,99.216741 86.7660954,97.1306305 88.7126014,95.7176738 C92.7222705,92.7951195 98.3651381,93.6948797 101.284897,97.7104759 C104.201323,101.726072 103.308064,107.364569 99.2917283,110.280458 C97.7385232,111.406825 95.9053411,112 94.0221632,112" id="Fill-20" fill="#FFFFFF"></path>
                <path d="M110.948692,116.267513 C109.165636,113.810009 105.726443,113.265273 103.26855,115.051142 C100.810657,116.837011 100.265835,120.27566 102.048891,122.733164 C103.835042,125.190668 107.274235,125.735404 109.732128,123.94644 C112.190021,122.160571 112.734843,118.725018 110.948692,116.267513" id="Fill-22" fill="#65B5F6"></path>
                <path d="M107.49034,114.383117 C106.421095,114.383117 105.378008,114.71998 104.495145,115.361002 C103.389931,116.16555 102.660752,117.352748 102.44821,118.703472 C102.235669,120.050926 102.559386,121.404921 103.360502,122.510356 C105.028133,124.796449 108.232599,125.300109 110.511694,123.645226 C112.790789,121.983803 113.300888,118.775424 111.646337,116.492601 C110.838681,115.387166 109.65172,114.661111 108.301266,114.448527 C108.033138,114.40274 107.761739,114.383117 107.49034,114.383117 M107.513229,126 C105.502263,126 103.514186,125.074443 102.245479,123.324716 C101.222012,121.918392 100.810009,120.20137 101.081407,118.484348 C101.352806,116.767325 102.278178,115.262886 103.684219,114.242484 C105.08699,113.222083 106.803669,112.809997 108.517077,113.08145 C110.233756,113.352903 111.741163,114.27519 112.76136,115.678242 L112.76136,115.681513 C114.867153,118.582463 114.222989,122.65753 111.32262,124.760473 C110.171628,125.597726 108.837524,126 107.513229,126" id="Fill-24" fill="#FFFFFF"></path>
                <path d="M119.2362,129.648114 C117.938304,127.86213 115.438148,127.466003 113.648418,128.763659 C111.862104,130.061315 111.465905,132.564424 112.7638,134.350408 C114.061696,136.136392 116.565268,136.535933 118.351582,135.234862 C120.137896,133.937207 120.534095,131.434098 119.2362,129.648114" id="Fill-26" fill="#65B5F6"></path>
                <path d="M116.495367,129.502029 C115.883989,129.502029 115.266209,129.687797 114.734854,130.072144 C113.400066,131.04262 113.102379,132.922718 114.075462,134.258324 C115.045345,135.600336 116.927493,135.888596 118.262281,134.924526 C118.908869,134.453701 119.334593,133.75547 119.45943,132.964356 C119.584266,132.176444 119.39221,131.38533 118.924874,130.738345 L118.921673,130.738345 C118.335903,129.931216 117.420436,129.502029 116.495367,129.502029 M116.50497,137 C115.109363,137 113.736164,136.356219 112.855907,135.145525 C111.399484,133.137312 111.847614,130.315563 113.851397,128.855045 C115.874386,127.400931 118.688005,127.846133 120.141228,129.851144 C120.845433,130.824823 121.130316,132.013096 120.944662,133.198167 C120.755807,134.38644 120.118821,135.433786 119.142537,136.141625 C118.345505,136.721348 117.420436,137 116.50497,137" id="Fill-28" fill="#FFFFFF"></path>
                <path d="M63.4724095,71.3938973 C67.6731619,72.7564749 69.9697894,77.2724463 68.6073832,81.4704829 C67.2417332,85.6717638 62.7295738,87.9719245 58.5288215,86.6061027 C54.3280692,85.2435251 52.0281978,80.7307979 53.3938478,76.5295171 C54.7594978,72.3282362 59.2716572,70.0280755 63.4724095,71.3938973" id="Fill-30" fill="#65B5F6"></path>
                <path d="M60.9900055,70.5664303 C59.833976,70.5664303 58.6879409,70.8396013 57.6251933,71.3792807 C55.8561682,72.2820776 54.5435583,73.8178319 53.9338943,75.7033783 C53.3175673,77.592256 53.4774792,79.6043939 54.3803149,81.3733429 C55.2764877,83.142292 56.8156394,84.4548455 58.7012669,85.0678146 C60.5935573,85.6841151 62.5991187,85.5242101 64.3748067,84.6214132 C66.1405003,83.7219476 67.4531102,82.182862 68.0661057,80.2939842 C69.3320746,76.3996313 67.1932534,72.1987938 63.2954016,70.9328792 C62.5391517,70.686359 61.7629129,70.5664303 60.9900055,70.5664303 M61.0099945,87 C60.0771753,87 59.1343615,86.8534204 58.2215313,86.5535986 C55.9327927,85.8140379 54.0738172,84.224982 52.9844176,82.0862527 C51.895018,79.944192 51.7017911,77.5056408 52.444715,75.2203319 C53.1843074,72.935023 54.7734316,71.0761274 56.9122529,69.9867747 C59.0544056,68.8940905 61.4897301,68.700872 63.7784687,69.4470953 C66.0638758,70.1866559 67.9228513,71.7757118 69.0155824,73.9144411 C70.104982,76.0565018 70.2982089,78.495053 69.555285,80.7803619 C68.8123611,83.0656708 67.2232369,84.9245664 65.0844156,86.0172505 C63.8017892,86.6701959 62.4125548,87 61.0099945,87" id="Fill-32" fill="#F9FDFA"></path>
                <path d="M43.1989208,67.2702106 C46.0861577,68.2080037 47.6674847,71.3123155 46.7298289,74.1999754 C45.7890787,77.0876352 42.6883162,78.6691939 39.8010792,77.7283058 C36.9138423,76.7905127 35.3325153,73.6892959 36.2701711,70.8016361 C37.2078268,67.9139762 40.3116838,66.3324176 43.1989208,67.2702106" id="Fill-34" fill="#65B5F6"></path>
                <path d="M40.4935702,67.3825866 C39.6995868,67.3825866 38.9088707,67.5721252 38.1769683,67.9413989 C36.9614875,68.5623014 36.0596792,69.6211036 35.6381818,70.9217311 C35.2166844,72.2190906 35.3245094,73.6046837 35.942052,74.8236134 C36.5628621,76.0392752 37.6215067,76.9412179 38.9219404,77.3660459 C40.2125719,77.7876061 41.6012261,77.6764972 42.8232417,77.0555947 C44.0387225,76.43796 44.9405308,75.3791578 45.3620282,74.0785303 C45.7835256,72.7811708 45.6757007,71.3955778 45.0548906,70.176648 C44.4373479,68.9609862 43.3787034,68.0590436 42.0782696,67.6374834 C41.5587496,67.4675522 41.0261599,67.3825866 40.4935702,67.3825866 M40.5066399,79 C39.833551,79 39.1539274,78.8954269 38.4939082,78.679745 C36.8438604,78.1438081 35.5009501,76.9967723 34.7102341,75.4510518 C33.9227855,73.9053312 33.7855538,72.1439287 34.321411,70.4936351 C34.8572681,68.8433415 36.004133,67.5002313 37.5528908,66.7093975 C39.0951138,65.9250995 40.8529865,65.7845795 42.5063018,66.3205164 C44.1563497,66.8564534 45.4992599,68.0034891 46.2867085,69.5492097 C47.0774245,71.0949302 47.2146562,72.8563327 46.6787991,74.5066263 C46.142942,76.1569199 44.996077,77.5000302 43.4473192,78.287596 C42.5226389,78.7614427 41.5162731,79 40.5066399,79" id="Fill-36" fill="#F9FDFA"></path>
                <path d="M27.2358508,63.1968569 C29.3354316,63.8796474 30.4859336,66.13627 29.8031431,68.2358508 C29.1203526,70.3354316 26.86373,71.4859336 24.7641492,70.8031431 C22.6645684,70.1203526 21.5140664,67.86373 22.1968569,65.7641492 C22.8796474,63.6645684 25.13627,62.5140664 27.2358508,63.1968569" id="Fill-38" fill="#65B5F6"></path>
                <path d="M26.5015992,64.5005872 C25.2382191,64.5005872 24.0611966,65.3075266 23.6517975,66.572372 C23.4023199,67.3344814 23.469487,68.1478251 23.8309096,68.8587003 C24.1923323,69.5727776 24.8160263,70.1043329 25.5740543,70.3508977 C27.1700712,70.8664423 28.839652,69.9954601 29.3482025,68.4264113 C29.5976801,67.6643019 29.530513,66.8509582 29.1690904,66.1368809 C28.8076677,65.4260057 28.1839737,64.8976526 27.4259457,64.6478856 L27.4259457,64.6478856 C27.1188963,64.5486193 26.8086486,64.5005872 26.5015992,64.5005872 M26.4952024,72 C26.0346283,72 25.5708559,71.9295529 25.1102819,71.7822545 C23.9684422,71.407604 23.0376988,70.6134732 22.4939656,69.5439583 C21.947034,68.4712413 21.8510811,67.2512258 22.222099,66.1080617 C22.9897224,63.744882 25.5484669,62.4608237 27.8897181,63.2165289 C29.0315578,63.5879772 29.9623012,64.382108 30.5060344,65.454825 C31.052966,66.527542 31.1489189,67.7475575 30.777901,68.8907217 C30.1606039,70.7895909 28.3918717,72 26.4952024,72" id="Fill-40" fill="#F9FDFA"></path>
                <path d="M100.529517,71.3938973 C96.3282362,72.7564749 94.0280755,77.2724463 95.3938973,81.4704829 C96.7597191,85.6717638 101.272446,87.9719245 105.470483,86.6061027 C109.671764,85.2435251 111.971924,80.7307979 110.606103,76.5295171 C109.243525,72.3282362 104.730798,70.0280755 100.529517,71.3938973" id="Fill-42" fill="#65B5F6"></path>
                <path d="M103.008332,70.5664303 C102.235126,70.5664303 101.458587,70.686359 100.702045,70.9328792 C96.806021,72.1987938 94.6630409,76.3996313 95.9294988,80.2973156 C96.5427311,82.182862 97.8558479,83.7186162 99.6255562,84.6214132 C101.398597,85.5242101 103.408266,85.6774524 105.297955,85.0678146 C109.193979,83.8019001 111.336959,79.6010626 110.070501,75.7033783 C109.460602,73.8178319 108.144152,72.2820776 106.374444,71.3792807 C105.311286,70.8396013 104.164808,70.5664303 103.008332,70.5664303 M102.991668,87 C101.588566,87 100.198795,86.6701959 98.9123405,86.0172505 C96.7726932,84.9245664 95.1829552,83.0656708 94.4397444,80.7803619 C92.9099965,76.0598332 95.4995697,70.9795182 100.218792,69.4470953 C102.508414,68.700872 104.944679,68.8940905 107.08766,69.9867747 C109.227307,71.0761274 110.817045,72.935023 111.560256,75.2203319 C113.090003,79.9408607 110.50043,85.024507 105.781208,86.5569299 C104.868025,86.8534204 103.924848,87 102.991668,87" id="Fill-44" fill="#F9FDFA"></path>
                <path d="M119.800204,67.2702106 C116.91274,68.2080037 115.334384,71.3123155 116.269018,74.1999754 C117.209843,77.0876352 120.310849,78.6691939 123.201408,77.7283058 C126.088872,76.7905127 127.667229,73.6892959 126.729499,70.8016361 C125.79177,67.9139762 122.690763,66.3324176 119.800204,67.2702106" id="Fill-46" fill="#65B5F6"></path>
                <path d="M122.497207,67.3843244 C121.97439,67.3843244 121.445037,67.4660329 120.92222,67.6359865 C119.621713,68.0576022 118.563008,68.9596636 117.942162,70.1754856 C117.324585,71.3945759 117.216754,72.7803515 117.638275,74.077882 C118.059796,75.3786808 118.961656,76.4376225 120.177206,77.0553385 C121.396023,77.6763228 122.781489,77.7874464 124.078729,77.3658307 C126.764702,76.4931843 128.238393,73.6007045 127.365942,70.9206668 C126.663406,68.760295 124.653828,67.3843244 122.497207,67.3843244 M122.493939,79 C121.480981,79 120.477826,78.7614113 119.553093,78.2875022 C118.004247,77.4998326 116.857317,76.1565454 116.321429,74.5060343 C115.785542,72.8555233 115.922781,71.0938888 116.710274,69.5479646 C117.501035,68.0020404 118.844022,66.8548536 120.494164,66.318846 C123.889208,65.2108792 127.571801,67.0836373 128.682788,70.4925145 C129.787239,73.9013917 127.9149,77.5750043 124.506785,78.6797028 C123.846729,78.8954132 123.167067,79 122.493939,79" id="Fill-48" fill="#F9FDFA"></path>
                <path d="M135.764597,63.1968569 C133.664676,63.8796474 132.513988,66.13627 133.196889,68.2358508 C133.876375,70.3354316 136.133363,71.4859336 138.236699,70.8031431 C140.336619,70.1203526 141.483893,67.86373 140.804407,65.7641492 C140.118091,63.6645684 137.864517,62.5140664 135.764597,63.1968569" id="Fill-50" fill="#65B5F6"></path>
                <path d="M136.502941,64.504905 C136.192565,64.504905 135.878989,64.552889 135.571813,64.6520558 L135.571813,64.6552548 C134.003935,65.1638848 133.143202,66.8561192 133.651962,68.4267942 C134.157523,69.9974693 135.86619,70.8547828 137.424469,70.3493517 C138.18601,70.103034 138.806762,69.5720115 139.168334,68.8618488 C139.533106,68.1484873 139.597101,67.3359588 139.34752,66.5778122 C139.101139,65.8132677 138.57318,65.1958741 137.859636,64.8343949 C137.430869,64.6136687 136.970105,64.504905 136.502941,64.504905 L136.502941,64.504905 Z M136.502941,72 C134.608688,72 132.839225,70.7908041 132.218473,68.8906392 C131.456932,66.5330272 132.749632,63.9898772 135.111049,63.2221338 C136.25656,62.8510578 137.475665,62.9470257 138.544383,63.4940429 C139.6131,64.0410601 140.406638,64.96875 140.777809,66.1139672 C141.14898,67.2527866 141.052988,68.4715793 140.50583,69.5432211 C139.961873,70.611664 139.030745,71.4049989 137.888433,71.7792738 C137.427669,71.9296235 136.963705,72 136.502941,72 L136.502941,72 Z" id="Fill-52" fill="#F9FDFA"></path>
                <path d="M61.5278333,98.2984845 C64.123598,94.7228667 69.1269345,93.9311692 72.6993557,96.5301436 C76.2750216,99.1258733 77.0699746,104.125898 74.4709652,107.701516 C71.8719557,111.277133 66.8718639,112.068831 63.296198,109.469856 C59.7237768,106.874127 58.9320685,101.874102 61.5278333,98.2984845" id="Fill-54" fill="#65B5F6"></path>
                <path d="M62.9822795,98.6284531 C60.5725727,101.944677 61.3124827,106.604054 64.625413,109.013732 C66.2352171,110.180243 68.1949787,110.65018 70.1580732,110.340222 C72.1211677,110.030263 73.8442913,108.973738 75.0074832,107.367286 C76.1773408,105.760834 76.6506166,103.797762 76.3406543,101.834691 C76.030692,99.8749533 74.9741539,98.1485172 73.3676827,96.9820064 C70.0414207,94.5689955 65.3853205,95.3088966 62.9822795,98.6284531 M68.9782167,112 C67.0917796,112 65.2620022,111.406746 63.7088578,110.28023 C59.6926798,107.363953 58.7994551,101.724706 61.712434,97.708576 C64.6287459,93.6957788 70.2713927,92.795899 74.2875707,95.715509 C76.2340006,97.1286535 77.510512,99.2150414 77.8871328,101.591391 C78.2637537,103.964407 77.6904901,106.344089 76.2773287,108.287163 C74.8641673,110.233569 72.7777544,111.510065 70.4047098,111.886682 C69.9281011,111.963338 69.4514925,112 68.9782167,112" id="Fill-56" fill="#FFFFFF"></path>
                <path d="M53.051308,116.267513 C54.8374594,113.810009 58.2735567,113.265273 60.7314497,115.051142 C63.1893426,116.837011 63.7341653,120.27566 61.9511094,122.733164 C60.1649579,125.190668 56.7257651,125.735404 54.2678721,123.94644 C51.8099792,122.160571 51.2651565,118.725018 53.051308,116.267513" id="Fill-58" fill="#65B5F6"></path>
                <path d="M53.3547806,116.489047 C51.6966779,118.771153 52.2068634,121.978525 54.4896161,123.639427 C55.5950178,124.440452 56.9391602,124.764132 58.2996547,124.551615 C59.6503379,124.335828 60.8342297,123.613271 61.6387529,122.504913 C62.443276,121.399824 62.7670476,120.046255 62.5544703,118.695954 C62.341893,117.348924 61.6125895,116.162098 60.5104582,115.357803 C58.2211646,113.696901 55.0161536,114.206942 53.3547806,116.489047 M57.4853202,126 C56.1248258,126 54.7970355,125.571697 53.6785521,124.757593 C50.7776901,122.65204 50.1334175,118.578253 52.2362971,115.678213 L52.2362971,115.674944 C54.3457176,112.774904 58.4206602,112.134084 61.3215222,114.239637 C62.7245321,115.259718 63.6500608,116.763685 63.9182352,118.480168 C64.18968,120.196651 63.7808776,121.913135 62.7572363,123.319016 C61.7368655,124.724898 60.2324725,125.646895 58.5155024,125.918263 C58.1721083,125.970575 57.8254439,126 57.4853202,126" id="Fill-60" fill="#FFFFFF"></path>
                <path d="M43.7638001,129.648114 C45.0616956,127.86213 47.5652676,127.466003 49.3515817,128.763659 C51.1378957,130.061315 51.5340953,132.564424 50.2361999,134.350408 C48.9383044,136.136392 46.4347324,136.535933 44.6484183,135.234862 C42.8621043,133.937207 42.4659047,131.434098 43.7638001,129.648114" id="Fill-62" fill="#65B5F6"></path>
                <path d="M47.5039031,129.50434 C46.5786424,129.50434 45.6629866,129.933395 45.0770949,130.740275 L45.0738933,130.740275 C44.6064606,131.38706 44.4143649,132.177931 44.5392271,132.965599 C44.6672909,133.75647 45.0899013,134.454485 45.7366232,134.925165 C47.0748895,135.892141 48.9542251,135.603969 49.924308,134.259169 C50.8975926,132.923975 50.5998444,131.044456 49.2647797,130.074279 C48.7333151,129.69005 48.1186091,129.50434 47.5039031,129.50434 L47.5039031,129.50434 Z M47.4942983,137 C46.5786424,137 45.6533818,136.721434 44.8561849,136.141889 C43.8796988,135.431066 43.2425816,134.387245 43.0568891,133.199338 C42.8679951,132.014633 43.1529369,130.826727 43.8604892,129.853347 C45.3172144,127.848955 48.1378187,127.397486 50.145218,128.857555 C52.1526174,130.317624 52.6008406,133.138502 51.1441153,135.146097 C50.2668786,136.356417 48.8901932,137 47.4942983,137 L47.4942983,137 Z" id="Fill-64" fill="#FFFFFF"></path>
            </g>
        </g>
    </g>
</svg>