<?xml version="1.0" encoding="UTF-8"?>
<svg width="303px" height="372px" viewBox="0 0 303 372" version="1.1" xmlns="http://www.w3.org/2000/svg" xmlns:xlink="http://www.w3.org/1999/xlink">
    <title>Group</title>
    <defs>
        <polygon id="path-1" points="-3.97294324e-15 0 303 0 303 290 -3.97294324e-15 290"></polygon>
        <polygon id="path-3" points="6.63052604e-17 0 23 0 23 63 6.63052604e-17 63"></polygon>
        <polygon id="path-5" points="-5.34487275e-15 0 23 0 23 63 -5.34487275e-15 63"></polygon>
        <polygon id="path-7" points="0 0 23 0 23 63 0 63"></polygon>
        <polygon id="path-9" points="0 0 23 0 23 63 0 63"></polygon>
        <polygon id="path-11" points="0 0 23 0 23 63 0 63"></polygon>
        <polygon id="path-13" points="-2.13738987e-14 0 23 0 23 63 -2.13738987e-14 63"></polygon>
        <polygon id="path-15" points="0 0 23 0 23 63 0 63"></polygon>
    </defs>
    <g id="Starfish" stroke="none" stroke-width="1" fill="none" fill-rule="evenodd">
        <g id="Starfish---Splash" transform="translate(-36.000000, -180.000000)">
            <g id="Group" transform="translate(36.000000, 180.000000)">
                <g id="Group-66">
                    <path d="M288.898348,101.08838 L216.337502,104.755594 C200.886716,105.538013 186.986377,95.4203234 182.955219,80.4647773 L164.015931,10.2143246 C160.700363,-2.07144153 143.299595,-2.07144153 139.984027,10.2143246 L121.04474,80.4647773 C117.007618,95.4203234 103.113242,105.538013 87.6624569,104.755594 L15.1016106,101.08838 C2.41181105,100.449305 -2.96704196,117.023443 7.67139902,123.981594 L68.5323456,163.729661 C81.4845282,172.192923 86.7918222,188.56399 81.2817777,203.035751 L55.3774124,271.022564 C50.8453411,282.914135 64.9245783,293.157251 74.8176128,285.165829 L131.367128,239.480935 C143.412897,229.757441 160.587062,229.757441 172.626867,239.480935 L229.182346,285.165829 C239.07538,293.157251 253.154617,282.914135 248.622546,271.022564 L222.718181,203.035751 C217.208136,188.56399 222.51543,172.192923 235.467613,163.729661 L296.322596,123.981594 C306.967,117.023443 301.594111,100.449305 288.898348,101.08838" id="Fill-1" fill="#424242"></path>
                    <g id="Group-5">
                        <mask id="mask-2" fill="white">
                            <use xlink:href="#path-1"></use>
                        </mask>
                        <g id="Clip-4"></g>
                        <path d="M151.497062,231.292683 C159.155071,231.292683 166.801152,233.813695 173.045651,238.861692 L229.603988,284.550552 C234.452868,288.463497 239.83256,287.173121 242.963755,284.891068 C246.106879,282.603041 248.987579,277.871663 246.774868,272.058998 L220.860497,204.063365 C215.140847,189.050799 220.747178,171.78605 234.18448,163.004326 L295.048956,123.24761 C300.249722,119.848426 300.697036,114.322512 299.498236,110.624629 C298.341184,107.058174 294.947565,103.013802 289.144416,103.013802 C288.923741,103.013802 288.70903,103.019776 288.49432,103.031724 L215.91619,106.70571 C199.860613,107.452456 185.236439,96.8367254 181.049583,81.3283207 L162.107341,11.0566084 C160.485084,5.05277686 155.379744,2.92007251 151.503026,2.92007251 L151.497062,2.92007251 C147.620343,2.92007251 142.50904,5.05277686 140.89871,11.0566084 L121.950505,81.3283207 C117.763649,96.8367254 103.133511,107.464403 87.0779329,106.70571 L14.5057676,103.031724 C8.46405129,102.661338 4.70065251,106.926747 3.50185195,110.624629 C2.29708721,114.322512 2.75036503,119.848426 7.95113165,123.24761 L68.815608,163.004326 C82.2529098,171.78605 87.8532766,189.050799 82.1336261,204.063365 L56.22522,272.058998 C54.0125085,277.877637 56.8932083,282.609015 60.0363322,284.891068 C63.1734919,287.179095 68.553184,288.457523 73.3901355,284.550552 L129.954437,238.861692 C136.192971,233.813695 143.85098,231.292683 151.497062,231.292683 M236.486654,290.000896 C233.432993,290.000896 230.385296,288.93544 227.778948,286.826632 L171.214647,241.131798 C159.793239,231.908001 143.212813,231.902027 131.779476,241.131798 L75.2211393,286.826632 C70.193334,290.894899 63.5551995,291.068144 58.3186478,287.256757 C53.0820961,283.445369 51.1974146,277.071152 53.4995888,271.013555 L79.407995,203.017922 C84.6385825,189.283784 79.5153503,173.482655 67.2172072,165.45365 L6.3527309,125.696935 C0.937253733,122.154375 -1.27545775,115.88769 0.728507366,109.722561 C2.7265083,103.557432 8.07041529,99.8535761 14.6608363,100.110456 L87.2330017,103.778469 C101.851212,104.48937 115.300442,94.7577868 119.129446,80.5636536 L138.077652,10.2919413 C139.759552,4.04317732 145.031888,-0.00119479235 151.497062,-0.00119479235 L151.503026,-0.00119479235 C157.968199,-0.00119479235 163.234572,4.03720336 164.922435,10.2919413 L183.864677,80.5636536 C187.699646,94.7577868 201.160804,104.573006 215.767086,103.778469 L288.345215,100.110456 L288.42275,101.574077 L288.345215,100.110456 C294.887923,99.8356543 300.273579,103.557432 302.27158,109.722561 C304.275545,115.88769 302.062834,122.154375 296.641392,125.696935 L235.776916,165.45365 C223.484737,173.482655 218.355541,189.283784 223.586128,203.017922 L249.500499,271.013555 C251.808637,277.071152 249.912027,283.445369 244.687404,287.250783 C242.164555,289.090763 239.31964,290.000896 236.486654,290.000896" id="Fill-3" fill="#424242" mask="url(#mask-2)"></path>
                    </g>
                    <path d="M167,117 C167,125.288032 160.28331,132 151.996958,132 C143.710606,132 137,125.288032 137,117 C137,108.711968 143.710606,102 151.996958,102 C160.28331,102 167,108.711968 167,117" id="Fill-6" fill="#65B5F6"></path>
                    <path d="M151.503055,103.87169 C143.98778,103.87169 137.8778,109.98167 137.8778,117.496945 C137.8778,125.01222 143.98778,131.12831 151.503055,131.12831 C159.01222,131.12831 165.1222,125.01222 165.1222,117.496945 C165.1222,109.98167 159.01222,103.87169 151.503055,103.87169 M151.503055,134 C142.405295,134 135,126.600815 135,117.496945 C135,108.405295 142.405295,101 151.503055,101 C160.594705,101 168,108.405295 168,117.496945 C168,126.600815 160.594705,134 151.503055,134" id="Fill-8" fill="#F9FDFA"></path>
                    <path d="M162,78.4970448 C162,84.2952435 157.301154,89 151.502955,89 C145.704757,89 141,84.2952435 141,78.4970448 C141,72.698846 145.704757,68 151.502955,68 C157.301154,68 162,72.698846 162,78.4970448" id="Fill-10" fill="#65B5F6"></path>
                    <path d="M152.003017,69.5533199 C146.795072,69.5533199 142.558713,73.7907445 142.558713,79 C142.558713,84.2092555 146.795072,88.4466801 152.003017,88.4466801 C157.210963,88.4466801 161.441287,84.2092555 161.441287,79 C161.441287,73.7907445 157.210963,69.5533199 152.003017,69.5533199 M152.003017,91 C145.382952,91 140,85.6217304 140,79 C140,72.3843058 145.382952,67 152.003017,67 C158.611013,67 164,72.3843058 164,79 C164,85.6217304 158.611013,91 152.003017,91" id="Fill-12" fill="#F9FDFA"></path>
                    <path d="M159,50 C159,53.8616567 155.867635,57 152,57 C148.132365,57 145,53.8616567 145,50 C145,46.1323655 148.132365,43 152,43 C155.867635,43 159,46.1323655 159,50" id="Fill-14" fill="#65B5F6"></path>
                    <path d="M152.503022,43.841394 C149.378599,43.841394 146.840384,46.3805121 146.840384,49.5 C146.840384,52.6194879 149.378599,55.158606 152.503022,55.158606 C155.627444,55.158606 158.159616,52.6194879 158.159616,49.5 C158.159616,46.3805121 155.627444,43.841394 152.503022,43.841394 M152.503022,58 C147.81941,58 144,54.1852774 144,49.5 C144,44.8147226 147.81941,41 152.503022,41 C157.186633,41 161,44.8147226 161,49.5 C161,54.1852774 157.186633,58 152.503022,58" id="Fill-16" fill="#F9FDFA"></path>
                    <path d="M188.131108,182.184658 C183.264331,175.480375 173.883618,173.995942 167.185716,178.869019 C160.48173,183.736013 158.997363,193.111058 163.86414,199.815342 C168.737001,206.519625 178.117714,208.004058 184.815616,203.130981 C191.519602,198.263987 193.003969,188.888942 188.131108,182.184658" id="Fill-18" fill="#65B5F6"></path>
                    <path d="M175.485637,177.874142 C172.705311,177.874142 169.906653,178.71725 167.486853,180.470672 C164.547651,182.608991 162.610589,185.767593 162.042302,189.366078 C161.474016,192.964564 162.341722,196.563049 164.480434,199.507819 C166.619147,202.45259 169.77222,204.389296 173.371367,204.957478 C176.952183,205.513441 180.563551,204.658113 183.514974,202.525904 C189.595028,198.108748 190.945472,189.567691 186.533614,183.488756 C183.86939,179.823067 179.701956,177.874142 175.485637,177.874142 M175.540633,208 C174.666816,208 173.79911,207.932796 172.925293,207.792278 C168.56843,207.101906 164.74319,204.761974 162.152293,201.194037 C159.567506,197.632208 158.516482,193.270038 159.206981,188.920086 C159.891369,184.564025 162.237842,180.739489 165.806436,178.149069 C173.157496,172.791052 183.502753,174.440613 188.855645,181.802539 C194.202426,189.164466 192.564783,199.50171 185.201502,204.847507 C182.353959,206.912512 178.993125,208 175.540633,208" id="Fill-20" fill="#FFFFFF"></path>
                    <path d="M206.992958,216.328889 C203.588942,211.63729 197.02321,210.597339 192.330869,214.006725 C187.638528,217.416111 186.598412,223.980805 190.002428,228.672404 C193.412353,233.364003 199.978085,234.403954 204.670426,230.988659 C209.362767,227.579273 210.402883,221.020488 206.992958,216.328889" id="Fill-22" fill="#65B5F6"></path>
                    <path d="M198.982166,212.553446 C197.008175,212.553446 195.082477,213.175348 193.452576,214.358773 C191.412181,215.844092 190.066003,218.035842 189.673619,220.529487 C189.281236,223.017094 189.878866,225.516777 191.357851,227.557581 C194.436553,231.77806 200.352491,232.707893 204.560051,229.652726 C208.767611,226.585482 209.709331,220.662321 206.654776,216.44788 C205.163718,214.407076 202.972406,213.066666 200.479261,212.674204 C199.984254,212.589674 199.48321,212.553446 198.982166,212.553446 M199.024423,234 C195.31187,234 191.641574,232.29128 189.299346,229.061013 C187.409868,226.464724 186.649247,223.294837 187.150291,220.124949 C187.651334,216.955062 189.359712,214.177636 191.955481,212.293817 C194.545213,210.409999 197.714466,209.649226 200.877681,210.15037 C204.046934,210.651514 206.829839,212.354196 208.713281,214.944447 L208.713281,214.950485 C212.600897,220.306086 211.411673,227.829286 206.057145,231.711643 C203.932237,233.257341 201.469275,234 199.024423,234" id="Fill-24" fill="#FFFFFF"></path>
                    <path d="M221.66335,241.884199 C219.392033,238.758727 215.016759,238.065506 211.884732,240.336403 C208.758683,242.6073 208.065333,246.987742 210.33665,250.113213 C212.607967,253.238685 216.989218,253.937882 220.115268,251.661009 C223.241317,249.390112 223.934667,245.009671 221.66335,241.884199" id="Fill-26" fill="#65B5F6"></path>
                    <path d="M216.491248,239.837166 C215.336423,239.837166 214.169506,240.18806 213.165836,240.914049 C210.644569,242.747171 210.082272,246.298467 211.920318,248.821279 C213.752318,251.35619 217.307486,251.900682 219.828753,250.07966 C221.050086,249.190323 221.854232,247.871443 222.090034,246.377116 C222.325836,244.888839 221.963063,243.394511 221.080317,242.17243 L221.074271,242.17243 C219.967816,240.647853 218.238601,239.837166 216.491248,239.837166 M216.509387,254 C213.873242,254 211.27942,252.783969 209.616714,250.497103 C206.865691,246.703811 207.71216,241.373842 211.497084,238.615084 C215.318285,235.868426 220.632898,236.709363 223.377875,240.496605 C224.70804,242.335778 225.246152,244.580293 224.895472,246.818759 C224.538746,249.063275 223.335552,251.041595 221.491459,252.378625 C219.985955,253.473658 218.238601,254 216.509387,254" id="Fill-28" fill="#FFFFFF"></path>
                    <path d="M117.635768,131.738558 C125.512178,134.29339 129.818355,142.760837 127.263844,150.632155 C124.70325,158.509557 116.242951,162.822358 108.36654,160.261442 C100.49013,157.70661 96.1778709,149.245246 98.7384646,141.367845 C101.299058,133.490443 109.759357,129.177642 117.635768,131.738558" id="Fill-30" fill="#65B5F6"></path>
                    <path d="M113.481677,131.871789 C111.362289,131.871789 109.261225,132.372602 107.312854,133.362015 C104.069642,135.017142 101.66319,137.832692 100.545473,141.289527 C99.4155401,144.752469 99.7087118,148.441389 101.363911,151.684462 C103.006894,154.927535 105.828672,157.333883 109.285656,158.45766 C112.754855,159.587544 116.431718,159.294385 119.687146,157.639257 C122.92425,155.990237 125.330702,153.16858 126.454527,149.705638 C128.77547,142.565991 124.854298,134.864455 117.708236,132.543612 C116.321778,132.091658 114.898674,131.871789 113.481677,131.871789 M113.518323,162 C111.808155,162 110.079663,161.731271 108.406141,161.181597 C104.21012,159.825736 100.801998,156.912467 98.8047656,152.991463 C96.807533,149.064352 96.4532838,144.593675 97.8153109,140.403942 C99.1712303,136.214209 102.084625,132.806234 106.005797,130.809087 C109.933077,128.805833 114.397839,128.451599 118.593859,129.819675 C122.783772,131.175536 126.191894,134.088805 128.195234,138.009809 C130.192467,141.93692 130.546716,146.407597 129.184689,150.59733 C127.822662,154.787063 124.909268,158.195038 120.988095,160.198293 C118.636614,161.395359 116.089684,162 113.518323,162" id="Fill-32" fill="#F9FDFA"></path>
                    <path d="M79.7433942,124.515857 C85.255392,126.306189 88.2742889,132.232602 86.4842189,137.745407 C84.6882411,143.258213 78.7686036,146.277552 73.2566058,144.481311 C67.744608,142.690979 64.7257111,136.770474 66.5157811,131.257669 C68.3058511,125.744864 74.2313964,122.725524 79.7433942,124.515857" id="Fill-34" fill="#65B5F6"></path>
                    <path d="M75.9881296,124.552468 C74.522314,124.552468 73.0625306,124.902385 71.7113261,125.584121 C69.4673616,126.730403 67.8024847,128.685114 67.0243357,131.086273 C66.2461867,133.481398 66.445248,136.039416 67.5853268,138.289748 C68.7314377,140.534047 70.6858585,142.199171 73.0866593,142.983469 C75.4693636,143.761734 78.0330327,143.55661 80.2890616,142.410329 C82.5330262,141.27008 84.1979031,139.315368 84.9760521,136.91421 C85.7542011,134.519085 85.5551397,131.961067 84.4090288,129.710735 C83.26895,127.466436 81.3145293,125.801311 78.9137285,125.023046 C77.9546146,124.709327 76.9713721,124.552468 75.9881296,124.552468 M76.0122582,146 C74.7696327,146 73.5149428,145.806942 72.2964459,145.40876 C69.2502037,144.419338 66.7709848,142.301733 65.3112014,139.448096 C63.8574502,136.594458 63.6040994,133.342638 64.5933741,130.295942 C65.5826488,127.249246 67.6999379,124.769658 70.5591831,123.309657 C73.4063639,121.861722 76.6516675,121.602301 79.7039418,122.591723 C82.750184,123.581145 85.2294029,125.698749 86.6831542,128.552387 C88.1429376,131.406025 88.3962884,134.657845 87.4070137,137.704541 C86.417739,140.751237 84.3004499,143.230825 81.4412047,144.684793 C79.7341026,145.559587 77.8761965,146 76.0122582,146" id="Fill-36" fill="#F9FDFA"></path>
                    <path d="M51.1627389,118.3445 C54.8370054,119.539383 56.8503839,123.488473 55.6555005,127.162739 C54.4606171,130.837005 50.5115275,132.850384 46.8372611,131.6555 C43.1629946,130.460617 41.1496161,126.511527 42.3444995,122.837261 C43.5393829,119.162995 47.4884725,117.149616 51.1627389,118.3445" id="Fill-38" fill="#65B5F6"></path>
                    <path d="M48.5030207,119.834442 C46.1166361,119.834442 43.8933714,121.358661 43.120062,123.747814 C42.6488265,125.187354 42.7756976,126.72367 43.4583849,128.066434 C44.1410721,129.415247 45.3191607,130.419295 46.7509915,130.885029 C49.7656901,131.858835 52.9193427,130.213647 53.879938,127.249888 C54.3511735,125.810348 54.2243024,124.274032 53.5416151,122.92522 C52.8589279,121.582455 51.6808393,120.584455 50.2490085,120.112673 L50.2490085,120.112673 C49.6690264,119.92517 49.0830028,119.834442 48.5030207,119.834442 M48.4909378,134 C47.6209646,134 46.74495,133.866933 45.8749769,133.588703 C43.7181685,132.88103 41.9600978,131.381005 40.9330462,129.36081 C39.8999531,127.334567 39.7187087,125.030093 40.4195204,122.870783 C41.8694756,118.406999 46.7026597,115.981556 51.1250231,117.408999 C53.2818315,118.110624 55.0399022,119.610648 56.0669538,121.636892 C57.1000469,123.663135 57.2812913,125.967609 56.5804796,128.126919 C55.414474,131.713672 52.0735355,134 48.4909378,134" id="Fill-40" fill="#F9FDFA"></path>
                    <path d="M186.367845,131.738558 C178.490443,134.29339 174.177642,142.760837 176.738558,150.632155 C179.299473,158.509557 187.760837,162.822358 195.632155,160.261442 C203.509557,157.70661 207.822358,149.245246 205.261442,141.367845 C202.70661,133.490443 194.245246,129.177642 186.367845,131.738558" id="Fill-42" fill="#65B5F6"></path>
                    <path d="M191.515275,131.871789 C190.097731,131.871789 188.674077,132.091658 187.287083,132.543612 C180.144372,134.864455 176.215575,142.565991 178.537414,149.711745 C179.661674,153.16858 182.069055,155.98413 185.31352,157.639257 C188.564095,159.294385 192.248488,159.575329 195.712917,158.45766 C202.855628,156.136817 206.784425,148.435281 204.462586,141.289527 C203.344436,137.832692 200.930945,135.017142 197.68648,133.362015 C195.737357,132.372602 193.635481,131.871789 191.515275,131.871789 M191.484725,162 C188.912371,162 186.364458,161.395359 184.005958,160.198293 C180.083271,158.195038 177.168751,154.787063 175.806198,150.59733 C173.00166,141.943027 177.749211,132.629117 186.401118,129.819675 C190.59876,128.451599 195.065246,128.805833 198.994042,130.809087 C202.916729,132.806234 205.831249,136.214209 207.193802,140.403942 C209.99834,149.058245 205.250789,158.378263 196.598882,161.187705 C194.924713,161.731271 193.195554,162 191.484725,162" id="Fill-44" fill="#F9FDFA"></path>
                    <path d="M223.254936,124.515857 C217.742504,126.306189 214.729278,132.232602 216.513581,137.745407 C218.3097,143.258213 224.229803,146.277552 229.748143,144.481311 C235.260574,142.690979 238.273801,136.770474 236.48359,131.257669 C234.693379,125.744864 228.773276,122.725524 223.254936,124.515857" id="Fill-46" fill="#65B5F6"></path>
                    <path d="M226.994844,124.555676 C226.029643,124.555676 225.052377,124.706522 224.087176,125.020283 C221.686239,125.79865 219.731707,127.463994 218.585531,129.708589 C217.445387,131.959217 217.246314,134.517572 218.024508,136.913013 C218.802701,139.314488 220.467672,141.269457 222.711765,142.409856 C224.961889,143.556288 227.519672,143.761439 229.914576,142.983072 C234.873296,141.372032 237.593956,136.03207 235.983277,131.084308 C234.686289,127.095929 230.976298,124.555676 226.994844,124.555676 M226.988811,146 C225.118734,146 223.266755,145.559529 221.559556,144.684619 C218.700148,143.23046 216.582739,140.750545 215.593408,137.703448 C214.604077,134.656351 214.857442,131.404102 216.311276,128.550089 C217.771142,125.696075 220.250502,123.578191 223.296918,122.588639 C229.564691,120.543162 236.363325,124.000561 238.414377,130.293873 C240.453364,136.587185 236.996738,143.369239 230.704835,145.408682 C229.486269,145.806917 228.231507,146 226.988811,146" id="Fill-48" fill="#F9FDFA"></path>
                    <path d="M252.838044,118.3445 C249.163183,119.539383 247.149478,123.488473 248.344555,127.162739 C249.533657,130.837005 253.483386,132.850384 257.164223,131.6555 C260.839084,130.460617 262.846813,126.511527 261.657711,122.837261 C260.456659,119.162995 256.512906,117.149616 252.838044,118.3445" id="Fill-50" fill="#65B5F6"></path>
                    <path d="M254.505555,119.842598 C253.919289,119.842598 253.32698,119.933235 252.746758,120.12055 L252.746758,120.126592 C249.78521,121.087338 248.159381,124.283781 249.120373,127.250611 C250.075321,130.217442 253.302804,131.836812 256.24622,130.882109 C257.684686,130.416842 258.857217,129.413799 259.540187,128.072381 C260.2292,126.72492 260.350079,125.190144 259.878649,123.75809 C259.413263,122.31395 258.416007,121.147762 257.068201,120.464968 C256.258308,120.048041 255.387975,119.842598 254.505555,119.842598 L254.505555,119.842598 Z M254.505555,134 C250.927522,134 247.585203,131.715963 246.412672,128.126763 C244.974206,123.673496 247.415972,118.869768 251.876426,117.419586 C254.040169,116.718665 256.342924,116.899937 258.361611,117.933192 C260.380299,118.966447 261.879205,120.71875 262.580306,122.881938 C263.281408,125.033041 263.100088,127.335205 262.066568,129.359418 C261.039093,131.377588 259.280296,132.876109 257.122596,133.583073 C256.252264,133.867067 255.375888,134 254.505555,134 L254.505555,134 Z" id="Fill-52" fill="#F9FDFA"></path>
                    <path d="M114.864687,182.184658 C119.731746,175.480375 129.113002,173.995942 135.811292,178.869019 C142.515666,183.736013 144.006202,193.111058 139.13306,199.815342 C134.259917,206.519625 124.884745,208.004058 118.180371,203.130981 C111.482081,198.263987 109.997629,188.888942 114.864687,182.184658" id="Fill-54" fill="#65B5F6"></path>
                    <path d="M116.467512,183.485497 C112.049717,189.565241 113.406218,198.107433 119.479924,202.525176 C122.431231,204.663779 126.024128,205.525331 129.623134,204.957073 C133.222141,204.388816 136.381201,202.451852 138.513719,199.50669 C140.658458,196.561528 141.52613,192.962565 140.957866,189.363601 C140.389602,185.770748 138.452615,182.605615 135.507418,180.467012 C129.409271,176.043158 120.873088,177.399644 116.467512,183.485497 M127.460064,208 C124.001596,208 120.647004,206.912368 117.799573,204.847088 C110.43658,199.50058 108.799001,189.161961 114.139462,181.799056 C119.486034,174.442261 129.830887,172.792482 137.19388,178.1451 C140.762334,180.735865 143.102605,184.560909 143.793077,188.917549 C144.483548,193.268079 143.432565,197.63083 140.841769,201.193132 C138.250973,204.761544 134.425883,207.101787 130.075301,207.79225 C129.201519,207.932787 128.327736,208 127.460064,208" id="Fill-56" fill="#FFFFFF"></path>
                    <path d="M98.0070425,216.328889 C101.416968,211.63729 107.97679,210.597339 112.669131,214.006725 C117.361472,217.416111 118.401588,223.980805 114.997572,228.672404 C111.587647,233.364003 105.021915,234.403954 100.329574,230.988659 C95.6372329,227.579273 94.597117,221.020488 98.0070425,216.328889" id="Fill-58" fill="#65B5F6"></path>
                    <path d="M98.3472872,216.441318 C95.2861746,220.654436 96.2280554,226.575738 100.442368,229.642018 C102.48311,231.120835 104.964603,231.718397 107.476286,231.326058 C109.969855,230.927683 112.155501,229.593731 113.640775,227.547531 C115.126048,225.507368 115.72378,223.00847 115.33133,220.515608 C114.938879,218.028782 113.592473,215.837719 111.557769,214.352867 C107.331381,211.286586 101.414437,212.2282 98.3472872,216.441318 M105.972899,234 C103.461217,234 101.009912,233.209286 98.9450192,231.706325 C93.5895817,227.819151 92.4001553,220.298313 96.2823947,214.944393 L96.2823947,214.938357 C100.176709,209.584438 107.69968,208.401385 113.055118,212.28856 C115.64529,214.171787 117.353958,216.948341 117.84905,220.117233 C118.350178,223.286126 117.595466,226.455018 115.705667,229.050492 C113.821905,231.645966 111.044565,233.348114 107.874774,233.8491 C107.240815,233.945676 106.600819,234 105.972899,234" id="Fill-60" fill="#FFFFFF"></path>
                    <path d="M82.3366502,241.884199 C84.6079673,238.758727 88.9892184,238.065506 92.1152679,240.336403 C95.2413174,242.6073 95.9346669,246.987742 93.6633498,250.113213 C91.3920327,253.238685 87.0107816,253.937882 83.8847321,251.661009 C80.7586826,249.390112 80.0653331,245.009671 82.3366502,241.884199" id="Fill-62" fill="#65B5F6"></path>
                    <path d="M88.5073724,239.84153 C86.7596579,239.84153 85.0300857,240.651968 83.9234014,242.176075 L83.917354,242.176075 C83.0344255,243.39778 82.6715782,244.891647 82.907429,246.379465 C83.1493272,247.873332 83.9475913,249.191805 85.1691772,250.080868 C87.6970135,251.907377 91.2468696,251.363053 93.0792485,248.822875 C94.9176749,246.300841 94.3552616,242.750639 91.8334728,240.918082 C90.8295952,240.192317 89.6684838,239.84153 88.5073724,239.84153 L88.5073724,239.84153 Z M88.4892301,254 C86.7596579,254 85.0119434,253.47382 83.506127,252.379124 C81.6616532,251.036459 80.4582096,249.064797 80.1074572,246.820972 C79.7506574,244.583196 80.2888809,242.339372 81.6253685,240.500767 C84.3769606,236.714692 89.7047686,235.861918 93.4965229,238.619826 C97.2882773,241.377733 98.134921,246.70606 95.3833289,250.498183 C93.7263262,252.784343 91.1259205,254 88.4892301,254 L88.4892301,254 Z" id="Fill-64" fill="#FFFFFF"></path>
                </g>
                <g id="Group-24" transform="translate(34.000000, 309.000000)">
                    <g id="Group-3">
                        <mask id="mask-4" fill="white">
                            <use xlink:href="#path-3"></use>
                        </mask>
                        <g id="Clip-2"></g>
                        <path d="M6.63052604e-17,51.4922377 C6.63052604e-17,50.1552463 1.08320251,49.0772216 2.40711669,49.0772216 C3.74306646,49.0772216 4.82025118,50.1552463 4.82025118,51.4922377 C4.82025118,55.1719754 7.82312925,58.1711724 11.5060178,58.1711724 C15.1828885,58.1711724 18.1797488,55.1719754 18.1797488,51.4922377 L18.1797488,40.5975642 C18.1797488,36.9118041 15.1828885,33.9126071 11.5060178,33.9126071 C5.15724751,33.9126071 6.63052604e-17,28.7513383 6.63052604e-17,22.4036403 L6.63052604e-17,11.5089668 C6.63052604e-17,5.16729122 5.15724751,0 11.5060178,0 C17.8427525,0 23,5.16729122 23,11.5089668 C23,12.8399358 21.9228153,13.9239829 20.5928833,13.9239829 C19.2629513,13.9239829 18.1797488,12.8399358 18.1797488,11.5089668 C18.1797488,7.82320664 15.1828885,4.83003212 11.5060178,4.83003212 C7.82312925,4.83003212 4.82025118,7.82320664 4.82025118,11.5089668 L4.82025118,22.4036403 C4.82025118,26.0894004 7.82312925,29.0825749 11.5060178,29.0825749 C17.8427525,29.0825749 23,34.2558887 23,40.5975642 L23,51.4922377 C23,57.8399358 17.8427525,63.0012045 11.5060178,63.0012045 C5.15724751,63.0012045 6.63052604e-17,57.8399358 6.63052604e-17,51.4922377" id="Fill-1" fill="#000000" mask="url(#mask-4)"></path>
                    </g>
                    <g id="Group-6" transform="translate(29.000000, 0.000000)">
                        <mask id="mask-6" fill="white">
                            <use xlink:href="#path-5"></use>
                        </mask>
                        <g id="Clip-5"></g>
                        <path d="M23,2.40913176 C23,3.74619988 21.9167975,4.82428634 20.5928833,4.82428634 L13.9131345,4.82428634 L13.9131345,60.5896637 C13.9131345,61.920709 12.8359498,63.0048183 11.5,63.0048183 C10.1640502,63.0048183 9.08686552,61.920709 9.08686552,60.5896637 L9.08686552,4.82428634 L2.40711669,4.82428634 C1.07718472,4.82428634 -5.34487275e-15,3.74619988 -5.34487275e-15,2.40913176 C-5.34487275e-15,1.07808646 1.07718472,0 2.40711669,0 L20.5928833,0 C21.9167975,0 23,1.07808646 23,2.40913176" id="Fill-4" fill="#000000" mask="url(#mask-6)"></path>
                    </g>
                    <g id="Group-9" transform="translate(61.000000, 0.000000)">
                        <mask id="mask-8" fill="white">
                            <use xlink:href="#path-7"></use>
                        </mask>
                        <g id="Clip-8"></g>
                        <path d="M18.1702406,29.0891536 L18.1702406,11.5091869 C18.1702406,7.82335621 15.1809623,4.83012447 11.5,4.83012447 C7.81903766,4.83012447 4.82374477,7.82335621 4.82374477,11.5091869 L4.82374477,29.0891536 L18.1702406,29.0891536 Z M23,11.5091869 L23,60.5873468 C23,61.9183412 21.917364,63.002409 20.582113,63.002409 C19.2528766,63.002409 18.1702406,61.9183412 18.1702406,60.5873468 L18.1702406,33.9132555 L4.82374477,33.9132555 L4.82374477,60.5873468 C4.82374477,61.9183412 3.74712343,63.002409 2.41788703,63.002409 C1.08263598,63.002409 0,61.9183412 0,60.5873468 L0,11.5091869 C0,5.16136742 5.16056485,0 11.5,0 C17.8394351,0 23,5.16136742 23,11.5091869 L23,11.5091869 Z" id="Fill-7" fill="#000000" mask="url(#mask-8)"></path>
                    </g>
                    <g id="Group-12" transform="translate(93.000000, 0.000000)">
                        <mask id="mask-10" fill="white">
                            <use xlink:href="#path-9"></use>
                        </mask>
                        <g id="Clip-11"></g>
                        <path d="M18.1791896,10.3406049 C18.1791896,7.29925054 15.7059533,4.83003212 12.667062,4.83003212 L4.82010291,4.83003212 L4.82010291,29.0885974 L12.667062,29.0885974 C15.7059533,29.0885974 18.1791896,26.6133565 18.1791896,23.5780246 L18.1791896,10.3406049 Z M15.6879005,33.4067184 L22.9150461,59.9538276 C23.2640672,61.2366167 22.5058488,62.5675857 21.2240986,62.9168897 C21.0134824,62.9710921 20.7968485,63.0012045 20.5862323,63.0012045 C19.5331511,63.0012045 18.5522812,62.2965739 18.2634361,61.2245717 L10.8256743,33.9126071 L4.82010291,33.9126071 L4.82010291,60.5922109 C4.82010291,61.9171574 3.74896893,63.0012045 2.41306026,63.0012045 C1.07715159,63.0012045 0,61.9171574 0,60.5922109 L0,31.5036135 L0,2.41501606 C0,1.08404711 1.07715159,0 2.41306026,0 L12.667062,0 C18.3657354,0 22.9992925,4.64333512 22.9992925,10.3406049 L22.9992925,23.5780246 C22.9992925,28.2153373 19.9062427,32.1058619 15.6879005,33.4067184 L15.6879005,33.4067184 Z" id="Fill-10" fill="#000000" mask="url(#mask-10)"></path>
                    </g>
                    <path d="M147,31.5 C147,32.8310707 145.917081,33.9091778 144.587497,33.9091778 L128.825007,33.9091778 L128.825007,60.5908222 C128.825007,61.9218929 127.748104,63 126.418519,63 C125.082919,63 124,61.9218929 124,60.5908222 L124,2.40917782 C124,1.07810707 125.082919,0 126.418519,0 L144.587497,0 C145.917081,0 147,1.07810707 147,2.40917782 C147,3.74627151 145.917081,4.82437859 144.587497,4.82437859 L128.825007,4.82437859 L128.825007,29.0908222 L144.587497,29.0908222 C145.917081,29.0908222 147,30.1629063 147,31.5" id="Fill-13" fill="#000000"></path>
                    <g id="Group-17" transform="translate(151.000000, 0.000000)">
                        <mask id="mask-12" fill="white">
                            <use xlink:href="#path-11"></use>
                        </mask>
                        <g id="Clip-16"></g>
                        <path d="M23,60.5910295 C23,61.9219857 21.9167975,63 20.5928833,63 L2.40711669,63 C1.07718472,63 0,61.9219857 0,60.5910295 C0,59.2540508 1.07718472,58.1760365 2.40711669,58.1760365 L9.08686552,58.1760365 L9.08686552,4.82938371 L2.40711669,4.82938371 C1.07718472,4.82938371 0,3.75136939 0,2.41439073 C0,1.0834345 1.07718472,-0.000602242637 2.40711669,-0.000602242637 L20.5928833,-0.000602242637 C21.9167975,-0.000602242637 23,1.0834345 23,2.41439073 C23,3.75136939 21.9167975,4.82938371 20.5928833,4.82938371 L13.9131345,4.82938371 L13.9131345,58.1760365 L20.5928833,58.1760365 C21.9167975,58.1760365 23,59.2540508 23,60.5910295" id="Fill-15" fill="#000000" mask="url(#mask-12)"></path>
                    </g>
                    <g id="Group-20" transform="translate(179.000000, 0.000000)">
                        <mask id="mask-14" fill="white">
                            <use xlink:href="#path-13"></use>
                        </mask>
                        <g id="Clip-19"></g>
                        <path d="M-2.13738987e-14,51.4922377 C-2.13738987e-14,50.1552463 1.08291917,49.0772216 2.41250327,49.0772216 C3.74208737,49.0772216 4.82500654,50.1552463 4.82500654,51.4922377 C4.82500654,55.1719754 7.82108292,58.1711724 11.4969919,58.1711724 C15.1789171,58.1711724 18.1749935,55.1719754 18.1749935,51.4922377 L18.1749935,40.5975642 C18.1749935,36.9118041 15.1789171,33.9126071 11.4969919,33.9126071 C5.16191473,33.9126071 -2.13738987e-14,28.7513383 -2.13738987e-14,22.4036403 L-2.13738987e-14,11.5089668 C-2.13738987e-14,5.16729122 5.16191473,0 11.4969919,0 C17.8441015,0 23,5.16729122 23,11.5089668 C23,12.8399358 21.923097,13.9239829 20.5874967,13.9239829 C19.2518964,13.9239829 18.1749935,12.8399358 18.1749935,11.5089668 C18.1749935,7.82320664 15.1789171,4.83003212 11.4969919,4.83003212 C7.82108292,4.83003212 4.82500654,7.82320664 4.82500654,11.5089668 L4.82500654,22.4036403 C4.82500654,26.0894004 7.82108292,29.0825749 11.4969919,29.0825749 C17.8441015,29.0825749 23,34.2558887 23,40.5975642 L23,51.4922377 C23,57.8399358 17.8441015,63.0012045 11.4969919,63.0012045 C5.16191473,63.0012045 -2.13738987e-14,57.8399358 -2.13738987e-14,51.4922377" id="Fill-18" fill="#000000" mask="url(#mask-14)"></path>
                    </g>
                    <g id="Group-23" transform="translate(213.000000, 0.000000)">
                        <mask id="mask-16" fill="white">
                            <use xlink:href="#path-15"></use>
                        </mask>
                        <g id="Clip-22"></g>
                        <path d="M23,2.40913176 L23,60.5896637 C23,61.920709 21.9167975,63.0048183 20.5928833,63.0048183 C19.2569335,63.0048183 18.173731,61.920709 18.173731,60.5896637 L18.173731,33.9085295 L4.82025118,33.9085295 L4.82025118,60.5896637 C4.82025118,61.920709 3.73704867,63.0048183 2.40711669,63.0048183 C1.07116693,63.0048183 0,61.920709 0,60.5896637 L0,2.40913176 C0,1.07808646 1.07116693,0 2.40711669,0 C3.73704867,0 4.82025118,1.07808646 4.82025118,2.40913176 L4.82025118,29.090266 L18.173731,29.090266 L18.173731,2.40913176 C18.173731,1.07808646 19.2569335,0 20.5928833,0 C21.9167975,0 23,1.07808646 23,2.40913176" id="Fill-21" fill="#000000" mask="url(#mask-16)"></path>
                    </g>
                </g>
            </g>
        </g>
    </g>
</svg>