<?xml version="1.0" encoding="UTF-8"?>
<svg width="23px" height="21px" viewBox="0 0 23 21" version="1.1" xmlns="http://www.w3.org/2000/svg" xmlns:xlink="http://www.w3.org/1999/xlink">
    <title></title>
    <g id="Starfish" stroke="none" stroke-width="1" fill="none" fill-rule="evenodd">
        <g id="Starfish---People---No-Group" transform="translate(-32.000000, -751.000000)" fill="#ADADAD" fill-rule="nonzero">
            <g id="component-/-main-navigation" transform="translate(0.000000, 737.000000)">
                <g id="Group-4" transform="translate(11.000000, 12.000000)">
                    <path d="M36.84375,22.7142857 C37.4241071,22.7142857 37.9709821,22.5200893 38.484375,22.1316964 C38.9977679,21.7433036 39.3392857,21.2633929 39.5089286,20.6919643 L39.5089286,20.6919643 L43.1919643,8.55803571 C43.3883929,7.91517857 43.3080357,7.33928571 42.9508929,6.83035714 C42.7633929,6.58035714 42.5,6.38839286 42.1607143,6.25446429 C42.1785714,6.56696429 42.15625,6.82142857 42.09375,7.01785714 L42.09375,7.01785714 L38.0758929,20.2366071 C38.0044643,20.46875 37.8482143,20.6540179 37.6071429,20.7924107 C37.3660714,20.9308036 37.1160714,21 36.8571429,21 L36.8571429,21 L24.4955357,21 C23.4241071,21 22.78125,20.6875 22.5669643,20.0625 C22.4776786,19.8214286 22.4821429,19.6294643 22.5803571,19.4866071 C22.6785714,19.3526786 22.8482143,19.2857143 23.0892857,19.2857143 L23.0892857,19.2857143 L34.7276786,19.2857143 C35.5580357,19.2857143 36.1316964,19.1316964 36.4486607,18.8236607 C36.765625,18.515625 37.0848214,17.8303571 37.40625,16.7678571 L37.40625,16.7678571 L41.0758929,4.63392857 C41.2723214,3.97321429 41.1919643,3.39285714 40.8348214,2.89285714 C40.4776786,2.39285714 39.96875,2.14285714 39.3080357,2.14285714 L39.3080357,2.14285714 L29.1160714,2.14285714 C29,2.14285714 28.7723214,2.18303571 28.4330357,2.26339286 L28.4330357,2.26339286 L28.4464286,2.22321429 C28.1964286,2.16964286 27.984375,2.14508929 27.8102679,2.14955357 C27.6361607,2.15401786 27.4754464,2.20535714 27.328125,2.30357143 C27.1808036,2.40178571 27.0625,2.50669643 26.9732143,2.61830357 C26.8839286,2.72991071 26.796875,2.87276786 26.7120536,3.046875 C26.6272321,3.22098214 26.5558036,3.38169643 26.4977679,3.52901786 C26.4397321,3.67633929 26.3727679,3.83258929 26.296875,3.99776786 C26.2209821,4.16294643 26.1473214,4.29910714 26.0758929,4.40625 C26.0223214,4.47767857 25.9464286,4.57142857 25.8482143,4.6875 C25.75,4.80357143 25.6696429,4.90625 25.6071429,4.99553571 C25.5446429,5.08482143 25.5044643,5.16517857 25.4866071,5.23660714 C25.46875,5.31696429 25.4776786,5.43526786 25.5133929,5.59151786 C25.5491071,5.74776786 25.5625,5.86160714 25.5535714,5.93303571 C25.5178571,6.27232143 25.3950893,6.703125 25.1852679,7.22544643 C24.9754464,7.74776786 24.7857143,8.125 24.6160714,8.35714286 C24.5803571,8.40178571 24.4821429,8.50223214 24.3214286,8.65848214 C24.1607143,8.81473214 24.0625,8.95089286 24.0267857,9.06696429 C23.9910714,9.11160714 23.9888393,9.23660714 24.0200893,9.44196429 C24.0513393,9.64732143 24.0625,9.79017857 24.0535714,9.87053571 C24.0178571,10.1741071 23.90625,10.5758929 23.71875,11.0758929 C23.53125,11.5758929 23.34375,11.9866071 23.15625,12.3080357 C23.1294643,12.3616071 23.0535714,12.4642857 22.9285714,12.6160714 C22.8035714,12.7678571 22.7276786,12.8928571 22.7008929,12.9910714 C22.6830357,13.0625 22.6852679,13.1875 22.7075893,13.3660714 C22.7299107,13.5446429 22.7276786,13.6785714 22.7008929,13.7678571 C22.6294643,14.1071429 22.4955357,14.515625 22.2991071,14.9933036 C22.1026786,15.4709821 21.9017857,15.8794643 21.6964286,16.21875 C21.6428571,16.3080357 21.5691964,16.4129464 21.4754464,16.5334821 L21.3883929,16.6488095 C21.3348214,16.7222222 21.2901786,16.7886905 21.2544643,16.8482143 C21.2008929,16.9375 21.1651786,17.03125 21.1473214,17.1294643 C21.1383929,17.1830357 21.1517857,17.2700893 21.1875,17.390625 C21.2232143,17.5111607 21.2366071,17.6071429 21.2276786,17.6785714 C21.21875,17.8035714 21.2008929,17.96875 21.1741071,18.1741071 C21.1473214,18.3794643 21.1339286,18.5 21.1339286,18.5357143 C20.9375,19.0714286 20.9464286,19.6383929 21.1607143,20.2366071 C21.4107143,20.9330357 21.8549107,21.5200893 22.4933036,21.9977679 C23.1316964,22.4754464 23.7946429,22.7142857 24.4821429,22.7142857 L24.4821429,22.7142857 L36.84375,22.7142857 Z M37.1383929,7.28571429 L28.9955357,7.28571429 C28.8705357,7.28571429 28.78125,7.24330357 28.7276786,7.15848214 C28.6741071,7.07366071 28.6651786,6.97321429 28.7008929,6.85714286 L28.7008929,6.85714286 L28.9821429,6 C29.0178571,5.88392857 29.0915179,5.78348214 29.203125,5.69866071 C29.3147321,5.61383929 29.4285714,5.57142857 29.5446429,5.57142857 L29.5446429,5.57142857 L37.6875,5.57142857 C37.8125,5.57142857 37.9017857,5.61383929 37.9553571,5.69866071 C38.0089286,5.78348214 38.0178571,5.88392857 37.9821429,6 L37.9821429,6 L37.7008929,6.85714286 C37.6651786,6.97321429 37.5915179,7.07366071 37.4799107,7.15848214 C37.3683036,7.24330357 37.2544643,7.28571429 37.1383929,7.28571429 L37.1383929,7.28571429 Z M36.0267857,10.7142857 L27.8839286,10.7142857 C27.7589286,10.7142857 27.6696429,10.671875 27.6160714,10.5870536 C27.5625,10.5022321 27.5535714,10.4017857 27.5892857,10.2857143 L27.5892857,10.2857143 L27.8705357,9.42857143 C27.90625,9.3125 27.9799107,9.21205357 28.0915179,9.12723214 C28.203125,9.04241071 28.3169643,9 28.4330357,9 L28.4330357,9 L36.5758929,9 C36.7008929,9 36.7901786,9.04241071 36.84375,9.12723214 C36.8973214,9.21205357 36.90625,9.3125 36.8705357,9.42857143 L36.8705357,9.42857143 L36.5892857,10.2857143 C36.5535714,10.4017857 36.4799107,10.5022321 36.3683036,10.5870536 C36.2566964,10.671875 36.1428571,10.7142857 36.0267857,10.7142857 L36.0267857,10.7142857 Z" id=""></path>
                </g>
            </g>
        </g>
    </g>
</svg>