<?xml version="1.0" encoding="UTF-8"?>
<svg width="23px" height="21px" viewBox="0 0 23 21" version="1.1" xmlns="http://www.w3.org/2000/svg" xmlns:xlink="http://www.w3.org/1999/xlink">
    <title></title>
    <g id="Starfish" stroke="none" stroke-width="1" fill="none" fill-rule="evenodd">
        <g id="Starfish---Tools---First-view" transform="translate(-32.000000, -800.000000)" fill="#3475F0" fill-rule="nonzero">
            <g id="component-/-main-navigation" transform="translate(0.000000, 786.000000)">
                <g id="Group-4" transform="translate(11.000000, 14.142857)">
                    <path d="M36.84375,20.5714286 C37.4241071,20.5714286 37.9709821,20.3772321 38.484375,19.9888393 C38.9977679,19.6004464 39.3392857,19.1205357 39.5089286,18.5491071 L39.5089286,18.5491071 L43.1919643,6.41517857 C43.3883929,5.77232143 43.3080357,5.19642857 42.9508929,4.6875 C42.7633929,4.4375 42.5,4.24553571 42.1607143,4.11160714 C42.1785714,4.42410714 42.15625,4.67857143 42.09375,4.875 L42.09375,4.875 L38.0758929,18.09375 C38.0044643,18.3258929 37.8482143,18.5111607 37.6071429,18.6495536 C37.3660714,18.7879464 37.1160714,18.8571429 36.8571429,18.8571429 L36.8571429,18.8571429 L24.4955357,18.8571429 C23.4241071,18.8571429 22.78125,18.5446429 22.5669643,17.9196429 C22.4776786,17.6785714 22.4821429,17.4866071 22.5803571,17.34375 C22.6785714,17.2098214 22.8482143,17.1428571 23.0892857,17.1428571 L23.0892857,17.1428571 L34.7276786,17.1428571 C35.5580357,17.1428571 36.1316964,16.9888393 36.4486607,16.6808036 C36.765625,16.3727679 37.0848214,15.6875 37.40625,14.625 L37.40625,14.625 L41.0758929,2.49107143 C41.2723214,1.83035714 41.1919643,1.25 40.8348214,0.75 C40.4776786,0.25 39.96875,5.68434189e-14 39.3080357,5.68434189e-14 L39.3080357,5.68434189e-14 L29.1160714,5.68434189e-14 C29,5.68434189e-14 28.7723214,0.0401785714 28.4330357,0.120535714 L28.4330357,0.120535714 L28.4464286,0.0803571429 C28.1964286,0.0267857143 27.984375,0.00223214286 27.8102679,0.00669642857 C27.6361607,0.0111607143 27.4754464,0.0625 27.328125,0.160714286 C27.1808036,0.258928571 27.0625,0.363839286 26.9732143,0.475446429 C26.8839286,0.587053571 26.796875,0.729910714 26.7120536,0.904017857 C26.6272321,1.078125 26.5558036,1.23883929 26.4977679,1.38616071 C26.4397321,1.53348214 26.3727679,1.68973214 26.296875,1.85491071 C26.2209821,2.02008929 26.1473214,2.15625 26.0758929,2.26339286 C26.0223214,2.33482143 25.9464286,2.42857143 25.8482143,2.54464286 C25.75,2.66071429 25.6696429,2.76339286 25.6071429,2.85267857 C25.5446429,2.94196429 25.5044643,3.02232143 25.4866071,3.09375 C25.46875,3.17410714 25.4776786,3.29241071 25.5133929,3.44866071 C25.5491071,3.60491071 25.5625,3.71875 25.5535714,3.79017857 C25.5178571,4.12946429 25.3950893,4.56026786 25.1852679,5.08258929 C24.9754464,5.60491071 24.7857143,5.98214286 24.6160714,6.21428571 C24.5803571,6.25892857 24.4821429,6.359375 24.3214286,6.515625 C24.1607143,6.671875 24.0625,6.80803571 24.0267857,6.92410714 C23.9910714,6.96875 23.9888393,7.09375 24.0200893,7.29910714 C24.0513393,7.50446429 24.0625,7.64732143 24.0535714,7.72767857 C24.0178571,8.03125 23.90625,8.43303571 23.71875,8.93303571 C23.53125,9.43303571 23.34375,9.84375 23.15625,10.1651786 C23.1294643,10.21875 23.0535714,10.3214286 22.9285714,10.4732143 C22.8035714,10.625 22.7276786,10.75 22.7008929,10.8482143 C22.6830357,10.9196429 22.6852679,11.0446429 22.7075893,11.2232143 C22.7299107,11.4017857 22.7276786,11.5357143 22.7008929,11.625 C22.6294643,11.9642857 22.4955357,12.3727679 22.2991071,12.8504464 C22.1026786,13.328125 21.9017857,13.7366071 21.6964286,14.0758929 C21.6428571,14.1651786 21.5691964,14.2700893 21.4754464,14.390625 L21.3883929,14.5059524 C21.3348214,14.5793651 21.2901786,14.6458333 21.2544643,14.7053571 C21.2008929,14.7946429 21.1651786,14.8883929 21.1473214,14.9866071 C21.1383929,15.0401786 21.1517857,15.1272321 21.1875,15.2477679 C21.2232143,15.3683036 21.2366071,15.4642857 21.2276786,15.5357143 C21.21875,15.6607143 21.2008929,15.8258929 21.1741071,16.03125 C21.1473214,16.2366071 21.1339286,16.3571429 21.1339286,16.3928571 C20.9375,16.9285714 20.9464286,17.4955357 21.1607143,18.09375 C21.4107143,18.7901786 21.8549107,19.3772321 22.4933036,19.8549107 C23.1316964,20.3325893 23.7946429,20.5714286 24.4821429,20.5714286 L24.4821429,20.5714286 L36.84375,20.5714286 Z M37.1383929,5.14285714 L28.9955357,5.14285714 C28.8705357,5.14285714 28.78125,5.10044643 28.7276786,5.015625 C28.6741071,4.93080357 28.6651786,4.83035714 28.7008929,4.71428571 L28.7008929,4.71428571 L28.9821429,3.85714286 C29.0178571,3.74107143 29.0915179,3.640625 29.203125,3.55580357 C29.3147321,3.47098214 29.4285714,3.42857143 29.5446429,3.42857143 L29.5446429,3.42857143 L37.6875,3.42857143 C37.8125,3.42857143 37.9017857,3.47098214 37.9553571,3.55580357 C38.0089286,3.640625 38.0178571,3.74107143 37.9821429,3.85714286 L37.9821429,3.85714286 L37.7008929,4.71428571 C37.6651786,4.83035714 37.5915179,4.93080357 37.4799107,5.015625 C37.3683036,5.10044643 37.2544643,5.14285714 37.1383929,5.14285714 L37.1383929,5.14285714 Z M36.0267857,8.57142857 L27.8839286,8.57142857 C27.7589286,8.57142857 27.6696429,8.52901786 27.6160714,8.44419643 C27.5625,8.359375 27.5535714,8.25892857 27.5892857,8.14285714 L27.5892857,8.14285714 L27.8705357,7.28571429 C27.90625,7.16964286 27.9799107,7.06919643 28.0915179,6.984375 C28.203125,6.89955357 28.3169643,6.85714286 28.4330357,6.85714286 L28.4330357,6.85714286 L36.5758929,6.85714286 C36.7008929,6.85714286 36.7901786,6.89955357 36.84375,6.984375 C36.8973214,7.06919643 36.90625,7.16964286 36.8705357,7.28571429 L36.8705357,7.28571429 L36.5892857,8.14285714 C36.5535714,8.25892857 36.4799107,8.359375 36.3683036,8.44419643 C36.2566964,8.52901786 36.1428571,8.57142857 36.0267857,8.57142857 L36.0267857,8.57142857 Z" id=""></path>
                </g>
            </g>
        </g>
    </g>
</svg>