<?xml version="1.0" encoding="UTF-8"?>
<svg width="21px" height="26px" viewBox="0 0 21 26" version="1.1" xmlns="http://www.w3.org/2000/svg" xmlns:xlink="http://www.w3.org/1999/xlink">
    <title>noun_Tree_16622</title>
    <defs>
        <filter id="filter-1">
            <feColorMatrix in="SourceGraphic" type="matrix" values="0 0 0 0 0.678431 0 0 0 0 0.678431 0 0 0 0 0.678431 0 0 0 1.000000 0"></feColorMatrix>
        </filter>
    </defs>
    <g id="Starfish" stroke="none" stroke-width="1" fill="none" fill-rule="evenodd">
        <g id="Starfish---Tools---First-view" transform="translate(-315.000000, -798.000000)">
            <g id="component-/-main-navigation" transform="translate(0.000000, 786.000000)">
                <g id="Group" transform="translate(300.000000, 12.000000)">
                    <g id="Group" transform="translate(15.000000, 0.000000)" filter="url(#filter-1)">
                        <g>
                            <path d="M10.2620657,2.90640266 L10.3413269,2.83425578 C10.7297972,2.48136995 10.9519094,1.97815296 10.9519094,1.4535032 C10.9519094,0.928853448 10.7297972,0.425334582 10.3413269,0.0727506275 L10.2620657,0 L10.1825031,0.0724487577 C9.79433418,0.425032712 9.57161924,0.928551578 9.57161924,1.45320133 C9.57161924,1.97785109 9.79433418,2.48106808 10.1825031,2.83395391 L10.2620657,2.90640266 Z" id="Path" fill="#000000" fill-rule="nonzero"></path>
                            <path d="M10.5634391,15.8868051 L10.6427003,15.8146582 C11.0311706,15.4617724 11.2532828,14.9585554 11.2532828,14.4339056 C11.2532828,13.9092559 11.0311706,13.405737 10.6427003,13.053153 L10.5634391,12.9804024 L10.4838765,13.0528512 C10.0957076,13.4054351 9.87299264,13.908954 9.87299264,14.4336038 C9.87299264,14.9582535 10.0957076,15.4614705 10.4838765,15.8143563 L10.5634391,15.8868051 Z" id="Path-Copy" fill="#000000" fill-rule="nonzero"></path>
                            <path d="M5.64954579,4.96606047 L5.75623197,4.97843713 L5.77913635,4.87338644 C5.88974039,4.3605096 5.77913635,3.8213701 5.47474921,3.3942243 C5.17006071,2.96738037 4.69750721,2.68754704 4.17673397,2.6259656 L4.07004779,2.61328706 L4.04744478,2.71833776 C3.936238,3.23121459 4.04744478,3.7703541 4.35122917,4.1974999 C4.65591768,4.6246457 5.12907392,4.90508277 5.64954579,4.96606047 Z" id="Path" fill="#000000" fill-rule="nonzero"></path>
                            <path d="M10.0182546,8.76962025 L9.9323632,8.72796221 L9.88323933,8.80976894 C9.55022172,9.36098324 9.46433031,10.0314361 9.64816808,10.6487599 C9.83170448,11.2657818 10.2699014,11.7795643 10.8497438,12.0587939 L10.9356353,12.10015 L10.9847591,12.0183433 C11.3174754,11.4674309 11.4036681,10.796978 11.219529,10.1799561 C11.036294,9.56233041 10.5983984,9.04854797 10.0182546,8.76962025 Z" id="Path" fill="#000000" fill-rule="nonzero"></path>
                            <path d="M10.7855513,4.34088807 L10.7364274,4.26119443 L10.652947,4.3025506 C10.0869678,4.58268579 9.662634,5.09073271 9.48874155,5.69839666 C9.31515047,6.30575875 9.40616524,6.96232562 9.7385801,7.49935203 L9.78770397,7.57964941 L9.87088302,7.5376895 C10.4371636,7.25815804 10.861196,6.74980926 11.0350885,6.1421453 C11.2089809,5.53478322 11.1176648,4.87851822 10.7855513,4.34088807 Z" id="Path" fill="#000000" fill-rule="nonzero"></path>
                            <path d="M7.53192405,13.5421822 C7.82666724,13.5186363 8.11478021,13.4540362 8.38782451,13.3492873 L8.49240108,13.3091387 L8.45955138,13.2146534 C8.23623369,12.5774062 7.71244672,12.0545677 7.02200026,11.7816774 C6.33577302,11.5093908 5.52628407,11.5090889 4.82800189,11.7762437 L4.7237267,11.8160905 L4.7565764,11.9102739 C4.97989409,12.5481248 5.50368106,13.0709634 6.19382615,13.3438537 C6.61092694,13.5098821 7.07383648,13.5784065 7.53192405,13.5421822 L7.53192405,13.5421822 Z" id="Path" fill="#000000" fill-rule="nonzero"></path>
                            <path d="M3.62070005,15.2803486 C3.65716623,15.2782355 3.69393378,15.2758206 3.73100271,15.2718963 C4.37654454,15.2078999 4.9684419,14.8716169 5.35540535,14.3493821 L5.41959788,14.2633492 L5.33973393,14.1912023 C4.85482413,13.7519817 4.22435097,13.5415784 3.56615146,13.6061786 C2.92060964,13.6704768 2.32871227,14.006458 1.94174883,14.5286927 L1.87785767,14.6147256 L1.95711887,14.6868725 C2.41520644,15.1013398 3.00589831,15.3117431 3.62070005,15.2803486 L3.62070005,15.2803486 Z" id="Path" fill="#000000" fill-rule="nonzero"></path>
                            <path d="M4.50281999,10.1926346 L4.59956086,10.1470523 L4.56339605,10.045624 C4.34399621,9.43373386 3.8750592,8.93987483 3.27592888,8.6911341 C2.81573169,8.49974863 2.31726009,8.46231677 1.83536402,8.58336657 C1.68949929,8.61989282 1.54574418,8.67121069 1.4095234,8.7361127 L1.31248116,8.78139317 L1.3483446,8.88251956 C1.56774444,9.49410783 2.03668145,9.98826873 2.6355104,10.2376132 C3.09631033,10.4289987 3.59448056,10.4658268 4.07637663,10.3453807 C4.2228441,10.3082507 4.36599647,10.2569329 4.50281999,10.1926346 Z" id="Path" fill="#000000" fill-rule="nonzero"></path>
                            <path d="M3.38321781,12.1904091 L3.45946528,12.1188659 L3.39557412,12.0361536 C3.00891204,11.5335404 2.42575451,11.2162752 1.79528135,11.1652592 C1.31127567,11.1257142 0.836913936,11.2407266 0.42614199,11.497316 C0.301373402,11.5751984 0.183235028,11.6660612 0.0759460972,11.7665839 L0,11.8384289 L0.0635897877,11.9211412 C0.449649115,12.4231507 1.03310802,12.7413215 1.66418392,12.7926394 C2.14818961,12.8321843 2.62164722,12.7168701 3.03332329,12.4602807 C3.1577905,12.3820964 3.27592888,12.2912336 3.38321781,12.1904091 Z" id="Path" fill="#000000" fill-rule="nonzero"></path>
                            <path d="M3.29762776,6.93274237 C3.71623542,7.30494787 4.25448831,7.5126343 4.81353597,7.51625674 C4.81383734,7.51625674 4.81383734,7.51625674 4.81383734,7.51625674 C4.90033151,7.51716235 4.98893529,7.5126343 5.07512808,7.50327634 L5.18181427,7.49180529 L5.18060877,7.38433963 C5.17427993,6.73411203 4.8924958,6.11376954 4.40788737,5.68179382 C3.98927972,5.30898459 3.45072545,5.10129815 2.89137642,5.09767571 C2.80458088,5.09707197 2.71657984,5.10160002 2.63038705,5.11065612 L2.52370087,5.12212717 L2.52460499,5.22929096 C2.53063245,5.87921669 2.81241658,6.49986105 3.29762776,6.93274237 Z" id="Path" fill="#000000" fill-rule="nonzero"></path>
                            <path d="M8.20278125,5.44029796 L8.29349464,5.49644575 L8.35919404,5.41403529 C8.75700693,4.91625195 8.92065269,4.27568418 8.80824041,3.65594544 C8.69582813,3.03560295 8.31639902,2.48801109 7.76789943,2.1517281 L7.67718603,2.09618406 L7.61148663,2.17799078 C7.21397512,2.67577412 7.05002798,3.31634188 7.16213889,3.9363825 C7.27455117,4.55642312 7.65367891,5.10431685 8.20278125,5.44029796 Z" id="Path" fill="#000000" fill-rule="nonzero"></path>
                            <path d="M5.64140871,8.84780453 L5.54587334,8.85897372 L5.54828432,8.93987483 C5.56696948,9.48354238 5.85990442,9.99581547 6.35325268,10.3453807 C6.82942265,10.6819656 7.43548457,10.8389379 8.06023163,10.7867144 L8.06023163,10.7867144 C8.08916347,10.7842995 8.11779395,10.7812808 8.14642442,10.7788658 L8.24195979,10.7673947 L8.23894605,10.6867955 C8.22116502,10.1428261 7.9279287,9.63055299 7.43458045,9.28159147 C6.93610884,8.92870565 6.29086839,8.77475204 5.64140871,8.84780453 Z" id="Path" fill="#000000" fill-rule="nonzero"></path>
                            <path d="M6.28634778,5.86985872 L6.19653851,5.86080263 L6.18267533,5.93445887 C6.08744134,6.4352609 6.25048435,6.96383496 6.62961209,7.3846415 C6.9954794,7.79035454 7.51655401,8.05811308 8.0991088,8.13931606 L8.0991088,8.13931606 C8.12532828,8.14324037 8.15215051,8.14625906 8.17927412,8.14897589 L8.26878202,8.1589376 L8.28294657,8.08467762 C8.37787919,7.58417745 8.21483618,7.05560339 7.83570844,6.63449499 C7.45266285,6.21066975 6.89482068,5.93717569 6.28634778,5.86985872 Z" id="Path" fill="#000000" fill-rule="nonzero"></path>
                            <path d="M15.3498515,4.96606047 L15.2434667,4.97843713 L15.2208637,4.87338644 C15.1093555,4.3605096 15.2208637,3.8213701 15.5249494,3.3942243 C15.8296379,2.96738037 16.3021914,2.68754704 16.8226633,2.6259656 L16.9293495,2.61328706 L16.9519525,2.71833776 C17.0631593,3.23121459 16.9522538,3.7703541 16.6478667,4.1974999 C16.3431782,4.6246457 15.8706247,4.90508277 15.3498515,4.96606047 Z" id="Path" fill="#000000" fill-rule="nonzero"></path>
                            <path d="M13.4674732,13.5421822 C13.1730314,13.5186363 12.8852198,13.4540362 12.6118741,13.3492873 L12.5072975,13.3091387 L12.5404486,13.2146534 C12.7637663,12.5774062 13.2875533,12.0545677 13.9776984,11.7816774 C14.6639256,11.5093908 15.4737159,11.5090889 16.1713954,11.7762437 L16.2756706,11.8160905 L16.2431222,11.9102739 C16.0198045,12.5481248 15.4960176,13.0709634 14.8058725,13.3438537 C14.3890731,13.5098821 13.9258621,13.5784065 13.4674732,13.5421822 L13.4674732,13.5421822 Z" id="Path" fill="#000000" fill-rule="nonzero"></path>
                            <path d="M17.3789986,15.2803486 C17.3425324,15.2782355 17.3054635,15.2758206 17.2686959,15.2718963 C16.6231541,15.2078999 16.0309554,14.8716169 15.6442933,14.3493821 L15.5801007,14.2633492 L15.6596633,14.1912023 C16.1451759,13.7519817 16.775649,13.5415784 17.4338485,13.6061786 C18.0793904,13.6704768 18.6709864,14.006458 19.0582512,14.5286927 L19.1221423,14.6147256 L19.0425798,14.6868725 C18.5844922,15.1013398 17.9941017,15.3117431 17.3789986,15.2803486 C17.3793,15.2803486 17.3793,15.2803486 17.3789986,15.2803486 Z" id="Path" fill="#000000" fill-rule="nonzero"></path>
                            <path d="M16.49718,10.1926346 L16.4004391,10.1470523 L16.4363026,10.045624 C16.6560038,9.43373386 17.1246394,8.93987483 17.7234684,8.6911341 C18.1839669,8.49974863 18.6824385,8.46231677 19.1640332,8.58336657 C19.3105007,8.61989282 19.4536531,8.67121069 19.5904766,8.7361127 L19.6872175,8.78139317 L19.651354,8.88251956 C19.4322556,9.49410783 18.9633186,9.98826873 18.3638869,10.2376132 C17.9036897,10.4289987 17.4052181,10.4658268 16.9236234,10.3453807 C16.7771559,10.3082507 16.6337022,10.2569329 16.49718,10.1926346 Z" id="Path" fill="#000000" fill-rule="nonzero"></path>
                            <path d="M17.6161794,12.1904091 L17.5405347,12.1188659 L17.6041245,12.0361536 C17.9904852,11.5335404 18.5739441,11.2162752 19.2047186,11.1652592 C19.6887243,11.1257142 20.1624833,11.2407266 20.573858,11.497316 C20.6983252,11.5751984 20.8158609,11.6660612 20.9237525,11.7665839 L21,11.8384289 L20.9361088,11.9211412 C20.5500495,12.4231507 19.9665906,12.7413215 19.3358161,12.7926394 C18.851509,12.8321843 18.3780514,12.7168701 17.9663753,12.4602807 C17.8419081,12.3820964 17.7237698,12.2912336 17.6161794,12.1904091 Z" id="Path" fill="#000000" fill-rule="nonzero"></path>
                            <path d="M17.7023722,6.93274237 C17.2837646,7.30494787 16.7452103,7.5126343 16.186464,7.51625674 L16.186464,7.51625674 C16.0987644,7.51716235 16.0110647,7.5126343 15.9245705,7.50327634 L15.817583,7.49180529 L15.8187885,7.38433963 C15.8257201,6.73411203 16.1072028,6.11376954 16.5918113,5.68179382 C17.0104189,5.30898459 17.5489732,5.10129815 18.1083222,5.09767571 C18.1954191,5.09707197 18.2831188,5.10160002 18.369613,5.11065612 L18.4762991,5.12212717 L18.4750936,5.22929096 C18.4687648,5.87921669 18.1869807,6.49986105 17.7023722,6.93274237 Z" id="Path" fill="#000000" fill-rule="nonzero"></path>
                            <path d="M12.7972188,5.44029796 L12.7065054,5.49644575 L12.640806,5.41403529 C12.2429931,4.91625195 12.0793473,4.27568418 12.1917596,3.65594544 C12.3041719,3.03560295 12.683601,2.48801109 13.2317992,2.1517281 L13.322814,2.09618406 L13.3885134,2.17799078 C13.7860249,2.67577412 13.9496706,3.31634188 13.8375597,3.9363825 C13.7254488,4.55642312 13.3457183,5.10431685 12.7972188,5.44029796 Z" id="Path" fill="#000000" fill-rule="nonzero"></path>
                            <path d="M15.3585913,8.84780453 L15.4541267,8.85897372 L15.4517157,8.93987483 C15.4330305,9.48354238 15.1400956,9.99581547 14.6464459,10.3453807 C14.1705773,10.6819656 13.5645154,10.8389379 12.9400697,10.7867144 L12.9400697,10.7867144 C12.9105352,10.7842995 12.8822061,10.7812808 12.8532742,10.7788658 L12.7580402,10.7673947 L12.7607526,10.6867955 C12.7791363,10.1428261 13.0723727,9.63055299 13.5654196,9.28159147 C14.0632884,8.92870565 14.7088302,8.77475204 15.3585913,8.84780453 Z" id="Path" fill="#000000" fill-rule="nonzero"></path>
                            <path d="M14.278469,6.16176684 L14.3767168,6.16357806 L14.3824428,6.24538478 C14.4201145,6.80082526 14.1741938,7.35203956 13.7076678,7.75745073 C13.2577173,8.14897589 12.6576829,8.37085021 12.0160589,8.38171753 L12.0160589,8.38171753 C11.9871271,8.3820194 11.9572911,8.3820194 11.9277565,8.38171753 L11.8295088,8.38051005 L11.8234813,8.29870333 C11.7867137,7.74356472 12.0329358,7.19204855 12.4991605,6.78633551 C12.9696043,6.37700003 13.6100228,6.15482384 14.278469,6.16176684 Z" id="Path" fill="#000000" fill-rule="nonzero"></path>
                            <path d="M13.9581091,14.537447 C13.909588,14.5462012 13.8544366,14.5640115 13.7974771,14.5863499 C13.2978,14.7481521 11.7864124,15.3470618 10.5001507,16.8059987 C9.21328626,15.3470618 7.70189865,14.748454 7.2028243,14.5863499 C7.14526198,14.5640115 7.09041202,14.5462012 7.04219228,14.537447 C6.82610755,14.4574515 6.54191243,14.9102562 6.81284712,15.0971136 C7.74620054,15.7132299 8.65393723,16.4676026 8.93722823,17.9334825 C9.11021656,18.8303377 9.08128471,20.0387226 9.05747621,21.1894504 C9.0167908,23.1633772 8.82903517,25.1944102 7.2028243,25.9448586 C7.65548715,26.0634934 8.28122286,25.9553712 10.5001507,25.9448586 C12.9343102,25.9553712 13.5051449,26.0631915 13.9581091,25.9448586 C12.3315968,25.194712 11.9835106,23.1636791 11.9428252,21.1894504 C11.9199208,20.0387226 11.8900848,18.8303377 12.0633745,17.9334825 C12.3463641,16.4679045 13.2541008,15.7135318 14.188057,15.0971136 C14.4583889,14.9105581 14.1741938,14.4577533 13.9581091,14.537447 Z" id="Path" fill="#000000" fill-rule="nonzero"></path>
                        </g>
                    </g>
                </g>
            </g>
        </g>
    </g>
</svg>