<?xml version="1.0" encoding="UTF-8"?>
<svg width="19px" height="23px" viewBox="0 0 19 23" version="1.1" xmlns="http://www.w3.org/2000/svg" xmlns:xlink="http://www.w3.org/1999/xlink">
    <title>noun_Tree_16622</title>
    <defs>
        <filter id="filter-1">
            <feColorMatrix in="SourceGraphic" type="matrix" values="0 0 0 0 0.011765 0 0 0 0 0.737255 0 0 0 0 0.000000 0 0 0 1.000000 0"></feColorMatrix>
        </filter>
    </defs>
    <g id="Starfish" stroke="none" stroke-width="1" fill="none" fill-rule="evenodd">
        <g id="Starfish---Results---First-view" transform="translate(-316.000000, -749.000000)">
            <g id="component-/-main-navigation" transform="translate(0.000000, 737.000000)">
                <g id="Group" transform="translate(300.000000, 12.000000)">
                    <g id="Group" transform="translate(16.000000, 0.000000)" filter="url(#filter-1)">
                        <g>
                            <path d="M9.28472611,2.57104851 L9.35643863,2.50722626 C9.70791177,2.19505803 9.90887042,1.74990454 9.90887042,1.28579129 C9.90887042,0.82167805 9.70791177,0.376257515 9.35643863,0.0643563244 L9.28472611,0 L9.21274092,0.0640892857 C8.86154045,0.375990476 8.66003645,0.821411011 8.66003645,1.28552425 C8.66003645,1.7496375 8.86154045,2.194791 9.21274092,2.50695922 L9.28472611,2.57104851 Z" id="Path" fill="#000000" fill-rule="nonzero"></path>
                            <path d="M9.55739728,14.0537122 L9.6291098,13.9898899 C9.98058294,13.6777217 10.1815416,13.2325682 10.1815416,12.768455 C10.1815416,12.3043417 9.98058294,11.8589212 9.6291098,11.54702 L9.55739728,11.4826637 L9.48541209,11.546753 C9.13421162,11.8586542 8.93270762,12.3040747 8.93270762,12.7681879 C8.93270762,13.2323012 9.13421162,13.6774547 9.48541209,13.9896229 L9.55739728,14.0537122 Z" id="Path-Copy" fill="#000000" fill-rule="nonzero"></path>
                            <path d="M5.11149381,4.39305349 L5.2080194,4.40400208 L5.22874241,4.31107262 C5.32881273,3.85737388 5.22874241,3.38044278 4.95334453,3.00258303 C4.67767397,2.62499033 4.25012557,2.37744546 3.77894979,2.32296957 L3.68242419,2.31175394 L3.66197385,2.40468341 C3.56135819,2.85838214 3.66197385,3.33531324 3.93682639,3.71317299 C4.21249695,4.09103273 4.64059069,4.33911168 5.11149381,4.39305349 Z" id="Path" fill="#000000" fill-rule="nonzero"></path>
                            <path d="M9.06413513,7.75774099 L8.98642385,7.72088965 L8.94197844,7.79325714 C8.6406768,8.28086979 8.56296551,8.87396272 8.72929493,9.42005684 C8.89535167,9.96588392 9.29181556,10.4203838 9.8164349,10.6673946 L9.89414618,10.7039789 L9.93859158,10.6316114 C10.2396206,10.1442658 10.3176045,9.55117283 10.1510024,9.00534575 C9.98521835,8.45898459 9.58902714,8.00448474 9.06413513,7.75774099 Z" id="Path" fill="#000000" fill-rule="nonzero"></path>
                            <path d="M9.75835594,3.84001637 L9.71391054,3.76951815 L9.63838062,3.80610245 C9.12630416,4.05391436 8.74238315,4.50334047 8.58505188,5.04088936 C8.42799328,5.5781712 8.51033998,6.15898035 8.81109628,6.63404218 L8.85554168,6.70507447 L8.93079893,6.6679561 C9.44314806,6.42067827 9.8267964,5.97098511 9.98412767,5.43343623 C10.1414589,4.89615439 10.0588396,4.31561227 9.75835594,3.84001637 Z" id="Path" fill="#000000" fill-rule="nonzero"></path>
                            <path d="M6.81459795,11.9796227 C7.08127036,11.9587937 7.341944,11.9016474 7.58898408,11.808985 L7.68360098,11.7734688 L7.65387982,11.6898857 C7.45183048,11.126167 6.97792799,10.663656 6.35323833,10.422253 C5.73236607,10.1813841 4.9999713,10.1811171 4.36819219,10.4174463 L4.27384796,10.4526955 L4.30356912,10.5360115 C4.50561846,11.1002643 4.97952096,11.5627753 5.60393795,11.8041783 C5.98131485,11.9510495 6.40013777,12.0116673 6.81459795,11.9796227 L6.81459795,11.9796227 Z" id="Path" fill="#000000" fill-rule="nonzero"></path>
                            <path d="M3.27587147,13.5172315 C3.30886468,13.5153622 3.34213057,13.5132259 3.37566912,13.5097544 C3.95973077,13.4531422 4.49525696,13.1556611 4.84536674,12.6936841 L4.9034457,12.6175781 L4.83118784,12.5537559 C4.39245992,12.1652146 3.82203183,11.9790886 3.22651799,12.0362349 C2.64245634,12.0931141 2.10693015,12.3903282 1.75682037,12.8523051 L1.69901408,12.9284112 L1.7707266,12.9922334 C2.18518678,13.3588775 2.71962228,13.5450035 3.27587147,13.5172315 L3.27587147,13.5172315 Z" id="Path" fill="#000000" fill-rule="nonzero"></path>
                            <path d="M4.07397999,9.01656138 L4.16150744,8.97623853 L4.1287869,8.88651353 C3.93028229,8.34522611 3.50600594,7.90835081 2.96393565,7.68831093 C2.54756677,7.5190084 2.09656865,7.4858956 1.66056744,7.59297812 C1.5285946,7.6252898 1.39853045,7.67068638 1.27528308,7.7280997 L1.18748296,7.7681555 L1.21993083,7.85761346 C1.41843544,8.39863385 1.84271179,8.83577618 2.38450941,9.05635014 C2.80142363,9.22565267 3.25214908,9.25823139 3.68815028,9.15168295 C3.82066847,9.1188372 3.95018728,9.07344062 4.07397999,9.01656138 Z" id="Path" fill="#000000" fill-rule="nonzero"></path>
                            <path d="M3.06100659,10.7838234 L3.12999239,10.7205353 L3.07218611,10.6473667 C2.72234899,10.2027472 2.19473027,9.92208958 1.62430218,9.87696004 C1.18639227,9.84197797 0.757207847,9.94371971 0.385557039,10.1707026 C0.272671173,10.2395986 0.165784073,10.3199772 0.0687131356,10.4089011 L0,10.4724563 L0.0575336175,10.5456249 C0.40682539,10.9897103 0.934716781,11.271169 1.50569022,11.3165656 C1.94360012,11.3515477 2.37196653,11.2495389 2.74443536,11.022556 C2.85704855,10.953393 2.96393565,10.8730144 3.06100659,10.7838234 Z" id="Path" fill="#000000" fill-rule="nonzero"></path>
                            <path d="M2.98356797,6.13281056 C3.36230823,6.46206927 3.84929895,6.64579188 4.35510397,6.64899635 C4.35537664,6.64899635 4.35537664,6.64899635 4.35537664,6.64899635 C4.43363327,6.64979746 4.5137986,6.64579188 4.59178255,6.63751369 L4.68830815,6.62736621 L4.68721746,6.53230044 C4.68149137,5.9570991 4.42654382,5.40833459 3.98808858,5.02620223 C3.60934832,4.69640945 3.12208493,4.51268683 2.61600723,4.50948236 C2.53747794,4.50894829 2.45785795,4.51295387 2.379874,4.52096503 L2.2833484,4.5311125 L2.28416642,4.62591123 C2.28961984,5.20084553 2.54456739,5.74987708 2.98356797,6.13281056 Z" id="Path" fill="#000000" fill-rule="nonzero"></path>
                            <path d="M7.42156398,4.81257128 L7.50363801,4.86224047 L7.56308032,4.78933891 C7.92300627,4.34899211 8.07106672,3.78233601 7.96936037,3.23410558 C7.86765402,2.68534107 7.52436102,2.20093289 7.02809948,1.90345178 L6.94602546,1.85431667 L6.88658314,1.92668415 C6.52692987,2.36703095 6.37859675,2.93368705 6.48003042,3.48218452 C6.58173677,4.03068199 6.92475711,4.51535721 7.42156398,4.81257128 Z" id="Path" fill="#000000" fill-rule="nonzero"></path>
                            <path d="M5.10413169,7.82690401 L5.01769492,7.83678444 L5.01987629,7.90835081 C5.03678191,8.38928749 5.30181829,8.84245215 5.748181,9.15168295 C6.17900145,9.44943109 6.72734318,9.58829121 7.29259052,9.54209352 L7.29259052,9.54209352 C7.31876695,9.53995721 7.34467071,9.53728682 7.37057448,9.53515051 L7.45701124,9.52500304 L7.45428453,9.45370371 C7.43819693,8.97249999 7.17288787,8.51933534 6.72652516,8.21063861 C6.27552704,7.89847038 5.69173806,7.76228065 5.10413169,7.82690401 Z" id="Path" fill="#000000" fill-rule="nonzero"></path>
                            <path d="M5.687648,5.19256733 L5.60639199,5.18455617 L5.59384911,5.24971361 C5.50768502,5.6927308 5.65520013,6.16031555 5.99822046,6.53256748 C6.32924327,6.89146748 6.80069172,7.1283308 7.3277651,7.20016421 L7.3277651,7.20016421 C7.35148749,7.20363571 7.37575523,7.2063061 7.40029563,7.20870944 L7.48127897,7.21752172 L7.49409452,7.1518302 C7.57998594,6.70908005 7.43247083,6.24149531 7.0894505,5.86897633 C6.74288544,5.49405401 6.23817109,5.25211696 5.687648,5.19256733 Z" id="Path" fill="#000000" fill-rule="nonzero"></path>
                            <path d="M13.8879609,4.39305349 L13.7917079,4.40400208 L13.7712576,4.31107262 C13.6703693,3.85737388 13.7712576,3.38044278 14.0463828,3.00258303 C14.3220534,2.62499033 14.7496018,2.37744546 15.2205049,2.32296957 L15.3170305,2.31175394 L15.3374808,2.40468341 C15.4380965,2.85838214 15.3377535,3.33531324 15.0623556,3.71317299 C14.786685,4.09103273 14.3591366,4.33911168 13.8879609,4.39305349 Z" id="Path" fill="#000000" fill-rule="nonzero"></path>
                            <path d="M12.1848567,11.9796227 C11.918457,11.9587937 11.658056,11.9016474 11.4107432,11.808985 L11.3161263,11.7734688 L11.3461202,11.6898857 C11.5481695,11.126167 12.022072,10.663656 12.646489,10.422253 C13.2673613,10.1813841 14.0000287,10.1811171 14.6312625,10.4174463 L14.7256067,10.4526955 L14.6961582,10.5360115 C14.4941089,11.1002643 14.0202064,11.5627753 13.3957894,11.8041783 C13.0186852,11.9510495 12.5995896,12.0116673 12.1848567,11.9796227 L12.1848567,11.9796227 Z" id="Path" fill="#000000" fill-rule="nonzero"></path>
                            <path d="M15.7238559,13.5172315 C15.6908626,13.5153622 15.6573241,13.5132259 15.6240582,13.5097544 C15.0399966,13.4531422 14.5041977,13.1556611 14.1543606,12.6936841 L14.0962816,12.6175781 L14.1682668,12.5537559 C14.6075401,12.1652146 15.1779682,11.9790886 15.773482,12.0362349 C16.3575437,12.0931141 16.8927972,12.3903282 17.2431796,12.8523051 L17.3009859,12.9284112 L17.2290007,12.9922334 C16.8145405,13.3588775 16.2803777,13.5450035 15.7238559,13.5172315 C15.7241285,13.5172315 15.7241285,13.5172315 15.7238559,13.5172315 Z" id="Path" fill="#000000" fill-rule="nonzero"></path>
                            <path d="M14.92602,9.01656138 L14.8384926,8.97623853 L14.8709404,8.88651353 C15.0697177,8.34522611 15.4937214,7.90835081 16.035519,7.68831093 C16.4521606,7.5190084 16.9031587,7.4858956 17.3388872,7.59297812 C17.4714054,7.6252898 17.6009242,7.67068638 17.7247169,7.7280997 L17.8122444,7.7681555 L17.7797965,7.85761346 C17.5815646,8.39863385 17.1572882,8.83577618 16.6149453,9.05635014 C16.1985764,9.22565267 15.7475782,9.25823139 15.3118497,9.15168295 C15.1793315,9.1188372 15.04954,9.07344062 14.92602,9.01656138 Z" id="Path" fill="#000000" fill-rule="nonzero"></path>
                            <path d="M15.9384481,10.7838234 L15.8700076,10.7205353 L15.9275412,10.6473667 C16.2771057,10.2027472 16.8049971,9.92208958 17.3756978,9.87696004 C17.8136077,9.84197797 18.2422468,9.94371971 18.614443,10.1707026 C18.7270562,10.2395986 18.8333979,10.3199772 18.9310142,10.4089011 L19,10.4724563 L18.9421937,10.5456249 C18.5929019,10.9897103 18.0650105,11.271169 17.4943098,11.3165656 C17.0561272,11.3515477 16.6277608,11.2495389 16.255292,11.022556 C16.1426788,10.953393 16.0357917,10.8730144 15.9384481,10.7838234 Z" id="Path" fill="#000000" fill-rule="nonzero"></path>
                            <path d="M16.016432,6.13281056 C15.6376918,6.46206927 15.1504284,6.64579188 14.644896,6.64899635 L14.644896,6.64899635 C14.5655487,6.64979746 14.4862014,6.64579188 14.4079448,6.63751369 L14.3111465,6.62736621 L14.3122372,6.53230044 C14.3185086,5.9570991 14.5731835,5.40833459 15.0116388,5.02620223 C15.390379,4.69640945 15.8776424,4.51268683 16.3837201,4.50948236 C16.4625221,4.50894829 16.5418694,4.51295387 16.620126,4.52096503 L16.7166516,4.5311125 L16.7155609,4.62591123 C16.7098348,5.20084553 16.4548873,5.74987708 16.016432,6.13281056 Z" id="Path" fill="#000000" fill-rule="nonzero"></path>
                            <path d="M11.578436,4.81257128 L11.496362,4.86224047 L11.4369197,4.78933891 C11.0769937,4.34899211 10.9289333,3.78233601 11.0306396,3.23410558 C11.132346,2.68534107 11.475639,2.20093289 11.9716278,1.90345178 L12.0539745,1.85431667 L12.1134169,1.92668415 C12.4730701,2.36703095 12.6211306,2.93368705 12.5196969,3.48218452 C12.4182632,4.03068199 12.0746976,4.51535721 11.578436,4.81257128 Z" id="Path" fill="#000000" fill-rule="nonzero"></path>
                            <path d="M13.8958683,7.82690401 L13.9823051,7.83678444 L13.9801237,7.90835081 C13.9632181,8.38928749 13.6981817,8.84245215 13.2515463,9.15168295 C12.8209986,9.44943109 12.2726568,9.58829121 11.7076822,9.54209352 L11.7076822,9.54209352 C11.6809604,9.53995721 11.6553293,9.53728682 11.6291529,9.53515051 L11.5429888,9.52500304 L11.5454428,9.45370371 C11.5620757,8.97249999 11.8273848,8.51933534 12.2734748,8.21063861 C12.7239276,7.89847038 13.3079893,7.76228065 13.8958683,7.82690401 Z" id="Path" fill="#000000" fill-rule="nonzero"></path>
                            <path d="M12.9186148,5.45079375 L13.0075056,5.45239598 L13.0126864,5.52476346 C13.0467703,6.01611465 12.8242706,6.5037273 12.4021756,6.86236026 C11.9950776,7.20870944 11.4521893,7.40498288 10.8716723,7.41459627 L10.8716723,7.41459627 C10.8454959,7.41486331 10.8185015,7.41486331 10.7917797,7.41459627 L10.7028889,7.41352812 L10.6974355,7.34116063 C10.6641696,6.85007648 10.8869419,6.3621968 11.3087642,6.0032968 C11.7344039,5.64119233 12.3138302,5.44465186 12.9186148,5.45079375 Z" id="Path" fill="#000000" fill-rule="nonzero"></path>
                            <path d="M12.6287654,12.8600492 C12.5848653,12.8677934 12.5349665,12.8835487 12.4834316,12.9033095 C12.0313428,13.0464423 10.6638969,13.576247 9.50013634,14.866845 C8.33583043,13.576247 6.9683845,13.0467093 6.51684103,12.9033095 C6.46476084,12.8835487 6.41513469,12.8677934 6.3715073,12.8600492 C6.17600207,12.789284 5.91887315,13.189842 6.16400453,13.355139 C7.00846716,13.9001649 7.82975273,14.5674946 8.08606363,15.8642345 C8.24257689,16.6576065 8.21640045,17.7265623 8.19485943,18.7445138 C8.15804882,20.4906798 7.98817468,22.2873628 6.51684103,22.951221 C6.92639313,23.0561672 7.49253497,22.9605207 9.50013634,22.951221 C11.7024712,22.9605207 12.2189406,23.0559002 12.6287654,22.951221 C11.1571591,22.2876299 10.8422238,20.4909469 10.8054132,18.7445138 C10.7846902,17.7265623 10.7576958,16.6576065 10.9144817,15.8642345 C11.1705199,14.5677617 11.9918055,13.900432 12.8368135,13.355139 C13.0813995,13.1901091 12.8242706,12.789551 12.6287654,12.8600492 Z" id="Path" fill="#000000" fill-rule="nonzero"></path>
                        </g>
                    </g>
                </g>
            </g>
        </g>
    </g>
</svg>