<?xml version="1.0" encoding="UTF-8"?>
<svg width="26px" height="27px" viewBox="0 0 26 27" version="1.1" xmlns="http://www.w3.org/2000/svg" xmlns:xlink="http://www.w3.org/1999/xlink">
    <title></title>
    <g id="Starfish" stroke="none" stroke-width="1" fill="none" fill-rule="evenodd">
        <g id="Starfish---Results---First-view" transform="translate(-334.000000, -45.000000)" fill="#ADADAD" fill-rule="nonzero">
            <path d="M348.715402,71.1428571 C349.039062,71.1428571 349.239955,70.9866071 349.31808,70.6741071 C349.46317,70.1160714 349.625,69.078125 349.803571,67.5602679 C350.328125,67.3928571 350.835938,67.1808036 351.327009,66.9241071 L351.327009,66.9241071 L353.637277,68.7321429 C353.793527,68.8325893 353.938616,68.8828125 354.072545,68.8828125 C354.31808,68.8828125 354.842634,68.4866071 355.646205,67.6941964 C356.449777,66.9017857 357.002232,66.2991071 357.303571,65.8861607 C357.404018,65.7745536 357.454241,65.6462054 357.454241,65.5011161 C357.454241,65.3560268 357.398438,65.2165179 357.28683,65.0825893 C356.483259,64.1004464 355.886161,63.3303571 355.495536,62.7723214 C355.71875,62.359375 355.936384,61.8515625 356.148438,61.2488839 L356.148438,61.2488839 L359.245536,60.7801339 C359.379464,60.7578125 359.491071,60.6852679 359.580357,60.5625 C359.669643,60.4397321 359.714286,60.3113839 359.714286,60.1774554 L359.714286,60.1774554 L359.714286,56.4609375 C359.714286,56.3158482 359.669643,56.1847098 359.580357,56.0675223 C359.491071,55.9503348 359.373884,55.8805804 359.228795,55.8582589 L359.228795,55.8582589 L356.165179,55.3895089 C355.997768,54.8537946 355.768973,54.3069196 355.478795,53.7488839 C355.503906,53.7140067 355.530587,53.677342 355.558838,53.6388899 L355.747175,53.3867275 C355.919817,53.1587176 356.131696,52.8860212 356.382812,52.5686384 C356.784598,52.0608259 357.069196,51.6897321 357.236607,51.4553571 C357.325893,51.3325893 357.370536,51.2042411 357.370536,51.0703125 C357.370536,50.9140625 357.331473,50.7912946 357.253348,50.7020089 C356.851562,50.1328125 355.930804,49.1841518 354.491071,47.8560268 C354.357143,47.7444196 354.217634,47.6886161 354.072545,47.6886161 C353.905134,47.6886161 353.771205,47.7388393 353.670759,47.8392857 L353.670759,47.8392857 L351.293527,49.6305804 C350.835938,49.3962054 350.333705,49.1897321 349.78683,49.0111607 L349.78683,49.0111607 L349.31808,45.9308036 C349.30692,45.7857143 349.242746,45.6657366 349.125558,45.5708705 C349.008371,45.4760045 348.871652,45.4285714 348.715402,45.4285714 L348.715402,45.4285714 L344.998884,45.4285714 C344.675223,45.4285714 344.47433,45.5848214 344.396205,45.8973214 C344.251116,46.4553571 344.089286,47.4933036 343.910714,49.0111607 C343.386161,49.1785714 342.878348,49.390625 342.387277,49.6473214 L342.387277,49.6473214 L340.077009,47.8560268 C339.93192,47.7444196 339.78683,47.6886161 339.641741,47.6886161 C339.396205,47.6886161 338.868862,48.0876116 338.05971,48.8856027 C337.250558,49.6835938 336.700893,50.2834821 336.410714,50.6852679 C336.310268,50.8303571 336.260045,50.9587054 336.260045,51.0703125 C336.260045,51.2042411 336.315848,51.3381696 336.427455,51.4720982 C337.175223,52.3761161 337.772321,53.1462054 338.21875,53.7823661 C337.939732,54.2957589 337.722098,54.8091518 337.565848,55.3225446 L337.565848,55.3225446 L334.452009,55.7912946 C334.329241,55.8136161 334.223214,55.8861607 334.133929,56.0089286 C334.044643,56.1316964 334,56.2600446 334,56.3939732 L334,56.3939732 L334,60.1104911 C334,60.2555804 334.044643,60.3867188 334.133929,60.5039062 C334.223214,60.6210938 334.340402,60.6908482 334.485491,60.7131696 L334.485491,60.7131696 L337.549107,61.1651786 C337.705357,61.7120536 337.934152,62.2645089 338.235491,62.8225446 C338.034598,63.1015625 337.733259,63.4949777 337.331473,64.0027902 C336.929688,64.5106027 336.645089,64.8816964 336.477679,65.1160714 C336.388393,65.2388393 336.34375,65.3671875 336.34375,65.5011161 C336.34375,65.6462054 336.382812,65.7745536 336.460938,65.8861607 C336.896205,66.4888393 337.816964,67.4263393 339.223214,68.6986607 C339.345982,68.8214286 339.485491,68.8828125 339.641741,68.8828125 C339.809152,68.8828125 339.948661,68.8325893 340.060268,68.7321429 L340.060268,68.7321429 L342.420759,66.9408482 C342.878348,67.1752232 343.38058,67.3816964 343.927455,67.5602679 L343.927455,67.5602679 L344.396205,70.640625 C344.407366,70.7857143 344.47154,70.905692 344.588728,71.000558 C344.705915,71.0954241 344.842634,71.1428571 344.998884,71.1428571 L344.998884,71.1428571 L348.715402,71.1428571 Z M346.857143,62.5714286 C345.674107,62.5714286 344.664062,62.1529018 343.827009,61.3158482 C342.989955,60.4787946 342.571429,59.46875 342.571429,58.2857143 C342.571429,57.1026786 342.989955,56.0926339 343.827009,55.2555804 C344.664062,54.4185268 345.674107,54 346.857143,54 C348.040179,54 349.050223,54.4185268 349.887277,55.2555804 C350.72433,56.0926339 351.142857,57.1026786 351.142857,58.2857143 C351.142857,59.46875 350.72433,60.4787946 349.887277,61.3158482 C349.050223,62.1529018 348.040179,62.5714286 346.857143,62.5714286 Z" id=""></path>
        </g>
    </g>
</svg>