<?xml version="1.0" encoding="UTF-8"?>
<svg width="17px" height="22px" viewBox="0 0 17 22" version="1.1" xmlns="http://www.w3.org/2000/svg"
    xmlns:xlink="http://www.w3.org/1999/xlink">
    <title>thumb_up</title>
    <g id="Starfish" stroke="none" stroke-width="1" fill="none" fill-rule="evenodd">
        <g id="Starfish---Actions---Groups-I-Teach---Ratings" transform="translate(-118.000000, -610.000000)"
            fill="#3475F0" fill-rule="nonzero">
            <g id="Group-5-Copy-2" transform="translate(15.000000, 496.000000)">
                <g id="Group-6-Copy" transform="translate(10.000000, 113.000000)">
                    <g id="" transform="translate(93.000000, 1.857143)">
                        <path
                            d="M2.57142857,12.2142857 C2.57142857,12.0401786 2.5078125,11.8895089 2.38058036,11.7622768 C2.25334821,11.6350446 2.10267857,11.5714286 1.92857143,11.5714286 C1.74776786,11.5714286 1.59542411,11.6350446 1.47154018,11.7622768 C1.34765625,11.8895089 1.28571429,12.0401786 1.28571429,12.2142857 C1.28571429,12.3950893 1.34765625,12.547433 1.47154018,12.671317 C1.59542411,12.7952009 1.74776786,12.8571429 1.92857143,12.8571429 C2.10267857,12.8571429 2.25334821,12.7952009 2.38058036,12.671317 C2.5078125,12.547433 2.57142857,12.3950893 2.57142857,12.2142857 Z M4.17857143,7.07142857 L4.17857143,13.5 C4.17857143,13.6741071 4.11495536,13.8247768 3.98772321,13.9520089 C3.86049107,14.0792411 3.70982143,14.1428571 3.53571429,14.1428571 L0.642857143,14.1428571 C0.46875,14.1428571 0.318080357,14.0792411 0.190848214,13.9520089 C0.0636160714,13.8247768 0,13.6741071 0,13.5 L0,7.07142857 C0,6.89732143 0.0636160714,6.74665179 0.190848214,6.61941964 C0.318080357,6.4921875 0.46875,6.42857143 0.642857143,6.42857143 L3.53571429,6.42857143 C3.70982143,6.42857143 3.86049107,6.4921875 3.98772321,6.61941964 C4.11495536,6.74665179 4.17857143,6.89732143 4.17857143,7.07142857 Z M16.0714286,7.07142857 C16.0714286,7.64732143 15.8872768,8.14620536 15.5189732,8.56808036 C15.6194196,8.86272321 15.6696429,9.1171875 15.6696429,9.33147321 C15.6897321,9.84040179 15.5457589,10.2991071 15.2377232,10.7075893 C15.3515625,11.0825893 15.3515625,11.4743304 15.2377232,11.8828125 C15.1372768,12.2645089 14.9564732,12.5792411 14.6953125,12.8270089 C14.7555804,13.5770089 14.5915179,14.1830357 14.203125,14.6450893 C13.7745536,15.1540179 13.1149554,15.4151786 12.2243304,15.4285714 L11.8627232,15.4285714 L11.0993304,15.4285714 L10.9285714,15.4285714 C10.4866071,15.4285714 10.0044643,15.3766741 9.48214286,15.2728795 C8.95982143,15.1690848 8.55301339,15.0719866 8.26171875,14.9815848 C7.97042411,14.891183 7.56696429,14.7589286 7.05133929,14.5848214 C6.22767857,14.296875 5.69866071,14.1495536 5.46428571,14.1428571 C5.29017857,14.1361607 5.13950893,14.0708705 5.01227679,13.9469866 C4.88504464,13.8231027 4.82142857,13.6741071 4.82142857,13.5 L4.82142857,7.06138393 C4.82142857,6.89397321 4.88169643,6.74832589 5.00223214,6.62444196 C5.12276786,6.50055804 5.26674107,6.43191964 5.43415179,6.41852679 C5.59486607,6.40513393 5.84933036,6.20758929 6.19754464,5.82589286 C6.54575893,5.44419643 6.88392857,5.0390625 7.21205357,4.61049107 C7.66741071,4.02790179 8.00558036,3.62611607 8.2265625,3.40513393 C8.34709821,3.28459821 8.45089286,3.12388393 8.53794643,2.92299107 C8.625,2.72209821 8.68359375,2.55970982 8.71372768,2.43582589 C8.74386161,2.31194196 8.7890625,2.109375 8.84933036,1.828125 C8.89620536,1.56696429 8.93805804,1.36272321 8.97488839,1.21540179 C9.01171875,1.06808036 9.07700893,0.893973214 9.17075893,0.693080357 C9.26450893,0.4921875 9.37834821,0.324776786 9.51227679,0.190848214 C9.63950893,0.0636160714 9.79017857,0 9.96428571,0 C10.2723214,0 10.5485491,0.03515625 10.7929688,0.10546875 C11.0373884,0.17578125 11.2382813,0.262834821 11.3956473,0.366629464 C11.5530134,0.470424107 11.686942,0.606026786 11.797433,0.7734375 C11.9079241,0.940848214 11.9882812,1.09151786 12.0385045,1.22544643 C12.0887277,1.359375 12.1289063,1.52678571 12.1590402,1.72767857 C12.1891741,1.92857143 12.2059152,2.07924107 12.2092634,2.1796875 C12.2126116,2.28013393 12.2142857,2.41071429 12.2142857,2.57142857 C12.2142857,2.82589286 12.1824777,3.08035714 12.1188616,3.33482143 C12.0552455,3.58928571 11.9916295,3.79017857 11.9280134,3.9375 C11.8643973,4.08482143 11.7723214,4.27232143 11.6517857,4.5 C11.6316964,4.54017857 11.5982143,4.60044643 11.5513393,4.68080357 C11.5044643,4.76116071 11.4676339,4.83482143 11.4408482,4.90178571 C11.4140625,4.96875 11.3872768,5.04910714 11.3604911,5.14285714 L14.1428571,5.14285714 C14.6651786,5.14285714 15.1171875,5.33370536 15.4988839,5.71540179 C15.8805804,6.09709821 16.0714286,6.54910714 16.0714286,7.07142857 Z"
                            id="thumb_up"></path>
                    </g>
                </g>
            </g>
        </g>
    </g>
</svg>