<?xml version="1.0" encoding="UTF-8"?>
<svg width="17px" height="22px" viewBox="0 -5 17 22" version="1.1" xmlns="http://www.w3.org/2000/svg"
    xmlns:xlink="http://www.w3.org/1999/xlink">
    <title>thumb_down</title>
    <g id="Starfish" stroke="none" stroke-width="1" fill="none" fill-rule="evenodd">
        <g id="Starfish---Actions---Groups-I-Teach---Ratings" transform="translate(-334.000000, -612.000000)"
            fill="#3475F0" fill-rule="nonzero">
            <g id="Group-5-Copy-2" transform="translate(15.000000, 496.000000)">
                <g id="Group-6-Copy-2" transform="translate(226.000000, 113.000000)">
                    <g id="" transform="translate(93.000000, 3.142857)">
                        <path
                            d="M2.57142857,3.21428571 C2.57142857,3.38839286 2.5078125,3.5390625 2.38058036,3.66629464 C2.25334821,3.79352679 2.10267857,3.85714286 1.92857143,3.85714286 C1.74776786,3.85714286 1.59542411,3.79352679 1.47154018,3.66629464 C1.34765625,3.5390625 1.28571429,3.38839286 1.28571429,3.21428571 C1.28571429,3.03348214 1.34765625,2.88113839 1.47154018,2.75725446 C1.59542411,2.63337054 1.74776786,2.57142857 1.92857143,2.57142857 C2.10267857,2.57142857 2.25334821,2.63337054 2.38058036,2.75725446 C2.5078125,2.88113839 2.57142857,3.03348214 2.57142857,3.21428571 Z M4.17857143,8.35714286 L4.17857143,1.92857143 C4.17857143,1.75446429 4.11495536,1.60379464 3.98772321,1.4765625 C3.86049107,1.34933036 3.70982143,1.28571429 3.53571429,1.28571429 L0.642857143,1.28571429 C0.46875,1.28571429 0.318080357,1.34933036 0.190848214,1.4765625 C0.0636160714,1.60379464 0,1.75446429 0,1.92857143 L0,8.35714286 C0,8.53125 0.0636160714,8.68191964 0.190848214,8.80915179 C0.318080357,8.93638393 0.46875,9 0.642857143,9 L3.53571429,9 C3.70982143,9 3.86049107,8.93638393 3.98772321,8.80915179 C4.11495536,8.68191964 4.17857143,8.53125 4.17857143,8.35714286 Z M15.5189732,6.86049107 C15.8872768,7.26897321 16.0714286,7.76785714 16.0714286,8.35714286 C16.0647321,8.87946429 15.8722098,9.33147321 15.4938616,9.71316964 C15.1155134,10.0948661 14.6651786,10.2857143 14.1428571,10.2857143 L11.3604911,10.2857143 C11.3872768,10.3794643 11.4140625,10.4598214 11.4408482,10.5267857 C11.4676339,10.59375 11.5044643,10.6674107 11.5513393,10.7477679 C11.5982143,10.828125 11.6316964,10.8883929 11.6517857,10.9285714 C11.7723214,11.1763393 11.8627232,11.3671875 11.9229911,11.5011161 C11.9832589,11.6350446 12.046875,11.8309152 12.1138393,12.0887277 C12.1808036,12.3465402 12.2142857,12.6026786 12.2142857,12.8571429 C12.2142857,13.0178571 12.2126116,13.1484375 12.2092634,13.2488839 C12.2059152,13.3493304 12.1891741,13.5 12.1590402,13.7008929 C12.1289063,13.9017857 12.0887277,14.0691964 12.0385045,14.203125 C11.9882812,14.3370536 11.9079241,14.4877232 11.797433,14.6551339 C11.686942,14.8225446 11.5530134,14.9581473 11.3956473,15.061942 C11.2382813,15.1657366 11.0373884,15.2527902 10.7929688,15.3231027 C10.5485491,15.3934152 10.2723214,15.4285714 9.96428571,15.4285714 C9.79017857,15.4285714 9.63950893,15.3649554 9.51227679,15.2377232 C9.37834821,15.1037946 9.26450893,14.9363839 9.17075893,14.7354911 C9.07700893,14.5345982 9.01171875,14.3604911 8.97488839,14.2131696 C8.93805804,14.0658482 8.89620536,13.8616071 8.84933036,13.6004464 C8.7890625,13.3191964 8.74386161,13.1166295 8.71372768,12.9927455 C8.68359375,12.8688616 8.625,12.7064732 8.53794643,12.5055804 C8.45089286,12.3046875 8.34709821,12.1439732 8.2265625,12.0234375 C8.00558036,11.8024554 7.66741071,11.4006696 7.21205357,10.8180804 C6.88392857,10.3895089 6.54575893,9.984375 6.19754464,9.60267857 C5.84933036,9.22098214 5.59486607,9.0234375 5.43415179,9.01004464 C5.26674107,8.99665179 5.12276786,8.92801339 5.00223214,8.80412946 C4.88169643,8.68024554 4.82142857,8.53459821 4.82142857,8.3671875 L4.82142857,1.92857143 C4.82142857,1.75446429 4.88504464,1.60546875 5.01227679,1.48158482 C5.13950893,1.35770089 5.29017857,1.29241071 5.46428571,1.28571429 C5.69866071,1.27901786 6.22767857,1.13169643 7.05133929,0.84375 C7.56696429,0.669642857 7.97042411,0.537388393 8.26171875,0.446986607 C8.55301339,0.356584821 8.95982143,0.259486607 9.48214286,0.155691964 C10.0044643,0.0518973214 10.4866071,0 10.9285714,0 L11.0993304,0 L11.8627232,0 L12.2243304,0 C13.1149554,0.0133928571 13.7745536,0.274553571 14.203125,0.783482143 C14.5915179,1.24553571 14.7555804,1.8515625 14.6953125,2.6015625 C14.9564732,2.84933036 15.1372768,3.1640625 15.2377232,3.54575893 C15.3515625,3.95424107 15.3515625,4.34598214 15.2377232,4.72098214 C15.5457589,5.12946429 15.6897321,5.58816964 15.6696429,6.09709821 C15.6696429,6.31138393 15.6194196,6.56584821 15.5189732,6.86049107 Z"
                            id="thumb_down"></path>
                    </g>
                </g>
            </g>
        </g>
    </g>
</svg>