<?xml version="1.0" standalone="no"?>
<!DOCTYPE svg PUBLIC "-//W3C//DTD SVG 20010904//EN"
 "http://www.w3.org/TR/2001/REC-SVG-20010904/DTD/svg10.dtd">
<svg version="1.0" xmlns="http://www.w3.org/2000/svg"
 width="652.000000pt" height="652.000000pt" viewBox="0 0 652.000000 652.000000"
 preserveAspectRatio="xMidYMid meet">
<metadata>
Created by potrace 1.14, written by Peter Selinger 2001-2017
</metadata>
<g transform="translate(0.000000,652.000000) scale(0.100000,-0.100000)"
fill="#000000" stroke="none">
<path d="M3186 6373 c-4 -4 -12 -8 -19 -9 -38 -6 -74 -30 -123 -80 -31 -31
-53 -58 -50 -62 3 -3 2 -10 -3 -16 -9 -11 -47 -137 -57 -186 -5 -25 -31 -121
-60 -215 -8 -28 -17 -62 -19 -75 -3 -14 -14 -56 -25 -95 -12 -38 -23 -79 -25
-90 -2 -11 -13 -54 -25 -95 -64 -234 -122 -447 -125 -460 -1 -8 -15 -58 -29
-110 -15 -52 -29 -103 -31 -113 -31 -139 -73 -246 -128 -326 -29 -43 -110
-128 -154 -161 -70 -54 -202 -111 -288 -124 -41 -7 -230 -8 -320 -2 -27 2
-111 7 -185 10 -74 4 -164 9 -200 11 -36 2 -126 7 -200 11 -241 11 -274 13
-375 18 -55 3 -152 8 -215 11 -179 10 -284 12 -295 6 -5 -3 -14 -6 -20 -7 -29
-4 -84 -36 -115 -66 -120 -112 -132 -295 -28 -414 31 -35 398 -284 418 -284 6
0 10 -4 10 -8 0 -5 12 -15 27 -23 16 -8 30 -16 33 -19 9 -9 69 -50 73 -50 2 0
88 -55 190 -122 103 -68 293 -193 423 -278 130 -85 253 -169 273 -187 20 -18
40 -33 44 -33 5 0 5 -4 2 -10 -3 -5 -2 -10 4 -10 15 0 96 -118 125 -182 13
-32 22 -58 19 -58 -3 0 -1 -6 5 -12 6 -7 13 -33 17 -58 4 -24 9 -48 12 -53 7
-11 6 -131 -1 -192 -6 -46 -61 -217 -100 -306 -8 -20 -12 -39 -9 -43 4 -3 1
-6 -5 -6 -7 0 -12 -6 -12 -12 0 -13 -72 -207 -91 -243 -6 -12 -11 -28 -13 -38
-1 -9 -5 -20 -9 -23 -4 -4 -7 -16 -7 -26 0 -10 -4 -18 -8 -18 -5 0 -9 -6 -9
-12 -1 -7 -27 -80 -58 -163 -32 -82 -64 -166 -71 -185 -7 -19 -34 -89 -59
-155 -26 -66 -48 -124 -49 -130 -2 -5 -7 -21 -13 -35 -6 -14 -18 -43 -26 -65
-9 -22 -28 -71 -43 -110 -55 -140 -34 -266 60 -358 63 -61 127 -85 218 -83 82
2 132 25 219 98 56 47 166 136 208 168 18 14 43 34 56 45 13 11 40 34 61 50
22 17 48 39 59 50 12 11 25 22 30 25 6 2 17 10 25 17 13 11 90 72 244 197 22
17 44 36 50 41 6 6 67 55 136 110 69 55 134 108 145 117 273 229 390 281 610
273 127 -4 154 -11 265 -62 64 -29 180 -109 180 -124 0 -6 4 -8 9 -5 5 4 11 3
13 -2 1 -4 39 -36 83 -72 44 -35 82 -67 85 -70 3 -3 25 -21 50 -40 51 -39 50
-38 146 -117 39 -32 89 -72 110 -89 93 -75 182 -147 223 -182 24 -20 49 -39
54 -41 6 -2 22 -16 37 -30 14 -14 33 -30 42 -36 15 -9 100 -77 143 -114 88
-74 216 -171 245 -185 49 -25 141 -32 193 -16 159 51 247 190 218 348 -7 36
-16 71 -20 77 -5 5 -17 35 -28 65 -48 129 -84 226 -92 245 -5 11 -22 54 -36
95 -15 41 -33 89 -40 105 -7 17 -27 68 -45 115 -17 47 -36 94 -40 105 -4 11
-17 45 -28 75 -11 30 -36 96 -55 145 -36 92 -126 329 -178 467 -16 43 -32 94
-35 115 -3 21 -8 41 -10 45 -11 18 -4 181 12 248 38 170 152 335 293 424 126
80 315 204 346 229 13 9 26 17 29 17 6 0 146 90 156 100 3 3 37 26 75 50 39
25 72 48 73 52 2 5 8 8 13 8 5 0 70 41 145 90 75 50 138 90 140 90 3 0 10 5
17 10 7 6 35 25 62 42 28 18 52 35 55 38 3 4 24 17 48 30 23 13 42 27 42 32 0
4 4 8 10 8 26 0 151 95 178 136 15 23 33 64 36 81 1 7 5 16 9 19 12 12 7 107
-7 156 -21 68 -62 123 -121 162 -81 54 -103 57 -380 42 -66 -4 -165 -9 -220
-11 -55 -3 -140 -7 -190 -10 -49 -3 -138 -7 -197 -10 -58 -2 -148 -7 -200 -10
-51 -3 -142 -7 -203 -10 -60 -2 -110 -5 -110 -6 0 -2 -163 -8 -255 -9 -114 0
-150 2 -165 12 -5 3 -26 9 -45 14 -45 10 -39 8 -84 28 -99 44 -242 163 -276
229 -7 15 -16 27 -20 27 -19 0 -88 188 -125 340 -2 8 -4 15 -5 15 -1 0 -3 7
-5 15 -1 8 -8 35 -15 60 -7 25 -14 52 -15 60 -2 8 -4 16 -5 18 -2 1 -3 10 -4
20 -1 9 -4 22 -7 27 -4 6 -16 51 -29 100 -12 50 -26 98 -31 107 -5 10 -9 26
-9 35 0 10 -9 47 -20 83 -11 36 -22 77 -25 93 -3 15 -11 46 -19 70 -15 48 -35
122 -41 152 -2 11 -4 20 -5 20 -1 0 -3 7 -5 15 -2 8 -11 42 -20 75 -9 33 -25
92 -35 130 -10 39 -27 104 -39 145 -12 41 -24 86 -27 100 -10 45 -41 105 -74
144 -52 58 -121 89 -211 92 -42 2 -79 0 -83 -3z"/>
</g>
</svg>
